<svg width="221" height="142" viewBox="0 0 221 142" fill="none" xmlns="http://www.w3.org/2000/svg">
<g clip-path="url(#clip0_39_1023)">
<path d="M193.661 131.109C200.768 124.001 200.768 112.476 193.661 105.368C186.554 98.2605 175.032 98.2605 167.925 105.368C160.818 112.476 160.818 124.001 167.925 131.109C175.032 138.217 186.554 138.217 193.661 131.109Z" fill="#0A1B43"/>
<path d="M180.692 119.913C184.046 119.17 186.163 115.849 185.42 112.495C184.678 109.14 181.357 107.023 178.003 107.765C174.649 108.508 172.532 111.829 173.275 115.183C174.017 118.538 177.338 120.655 180.692 119.913Z" fill="white"/>
<path d="M177.276 114.257C178.394 114.01 179.1 112.903 178.852 111.785C178.605 110.666 177.498 109.961 176.38 110.208C175.262 110.456 174.556 111.563 174.804 112.681C175.051 113.799 176.158 114.505 177.276 114.257Z" fill="#0A1B43"/>
<path d="M180.074 105.934C172.631 105.92 167.407 104.59 167.419 97.8466C167.432 91.1028 173.475 85.6469 180.918 85.6607C188.361 85.6744 194.384 91.1525 194.372 97.8964C194.359 104.64 187.517 105.948 180.074 105.934Z" fill="#215ADE"/>
<path d="M209.317 121.281C207.182 128.688 200.949 133.873 194.446 138.277C193.538 138.893 192.63 139.494 191.722 140.08C191.716 140.083 191.709 140.089 191.703 140.092C191.659 140.12 191.616 140.148 191.575 140.176C191.387 140.297 191.2 140.418 191.014 140.537L191.116 140.583C191.116 140.583 191.216 140.637 191.106 140.592C191.074 140.578 191.04 140.566 191.007 140.552C187.23 139.028 183.385 137.393 180.49 134.538C177.487 131.574 175.732 126.925 177.359 123.031C177.572 122.521 177.842 122.036 178.163 121.586C178.295 121.397 178.437 121.217 178.585 121.039C179.482 119.945 180.655 119.108 181.982 118.617C183.309 118.125 184.743 117.996 186.137 118.243C187.53 118.49 188.833 119.103 189.911 120.02C190.989 120.937 191.803 122.125 192.27 123.461C192.748 119.013 189.08 115.286 185.551 112.537C182.02 109.789 178.008 106.796 177.325 102.373C176.944 99.9114 177.8 97.5262 179.358 95.6114C179.407 95.5533 179.455 95.4952 179.505 95.4386C181.402 93.2084 184.071 91.7764 186.979 91.4284C192.393 90.8656 197.652 93.7319 201.586 97.497C207.916 103.555 211.744 112.859 209.317 121.281Z" fill="#D6D6D6"/>
<path d="M199.14 111.593C200.179 113.209 200.977 114.969 201.508 116.817C201.957 118.468 202.157 120.176 202.101 121.887C201.956 125.406 200.968 128.838 199.221 131.896C197.905 134.216 196.3 136.36 194.446 138.277C193.538 138.892 192.63 139.493 191.722 140.08C191.716 140.083 191.709 140.089 191.703 140.091C191.659 140.12 191.616 140.148 191.575 140.176C191.387 140.297 191.2 140.418 191.014 140.537C191.014 140.537 191.216 140.637 191.106 140.592C191.074 140.578 191.04 140.566 191.007 140.552C191.346 137.776 191.014 134.959 190.04 132.338C189.066 129.716 187.478 127.367 185.408 125.485C183.334 123.633 180.852 122.297 178.163 121.586C178.295 121.397 178.437 121.217 178.585 121.039C179.624 121.331 180.634 121.713 181.605 122.182C185.076 123.849 187.918 126.59 189.711 129.998C191.319 133.093 192.011 136.582 191.706 140.057C191.861 139.916 192.017 139.772 192.168 139.63C195.038 136.954 197.587 133.881 199.313 130.336C200.81 127.333 201.546 124.009 201.455 120.655C201.314 116.998 199.858 113.61 197.748 110.661C195.436 107.515 192.705 104.7 189.63 102.294C186.532 99.8122 183.141 97.7187 179.535 96.0604C179.453 96.0224 179.39 95.9546 179.357 95.871C179.324 95.7874 179.325 95.6944 179.358 95.6113C179.383 95.5367 179.435 95.4745 179.505 95.4384C179.54 95.423 179.579 95.4158 179.618 95.4175C179.657 95.4191 179.695 95.4295 179.73 95.448C180.175 95.653 180.617 95.8609 181.056 96.0777C184.71 97.884 188.125 100.137 191.224 102.786C194.217 105.338 197.034 108.253 199.14 111.593Z" fill="white"/>
<path d="M31.1488 141.809C33.6933 141.809 35.756 141.036 35.756 140.081C35.756 139.127 33.6933 138.354 31.1488 138.354C28.6042 138.354 26.5415 139.127 26.5415 140.081C26.5415 141.036 28.6042 141.809 31.1488 141.809Z" fill="#0A1B43"/>
<path d="M42.2061 141.579C44.7507 141.579 46.8134 140.805 46.8134 139.851C46.8134 138.897 44.7507 138.123 42.2061 138.123C39.6616 138.123 37.5989 138.897 37.5989 139.851C37.5989 140.805 39.6616 141.579 42.2061 141.579Z" fill="#0A1B43"/>
<path d="M56.8853 112.535C61.239 110.025 64.1297 106.882 63.3418 105.515C62.5539 104.148 58.3857 105.075 54.0319 107.585C49.6782 110.095 46.7875 113.239 47.5754 114.605C48.3633 115.972 52.5315 115.046 56.8853 112.535Z" fill="#0A1B43"/>
<path d="M52.7982 118.69C54.4081 108.768 47.6707 99.419 37.7497 97.8088C27.8286 96.1986 18.4809 102.937 16.8709 112.859C15.2609 122.782 21.9984 132.131 31.9195 133.741C41.8405 135.351 51.1882 128.613 52.7982 118.69Z" fill="#0A1B43"/>
<path d="M32.0702 130.059H26.5415V139.966H32.0702V130.059Z" fill="#0A1B43"/>
<path d="M43.1276 130.059H37.5989V139.966H43.1276V130.059Z" fill="#0A1B43"/>
<path d="M35.2953 117.388C38.7304 117.388 41.5151 114.603 41.5151 111.167C41.5151 107.732 38.7304 104.947 35.2953 104.947C31.8602 104.947 29.0755 107.732 29.0755 111.167C29.0755 114.603 31.8602 117.388 35.2953 117.388Z" fill="white"/>
<path d="M35.2953 113.241C36.4403 113.241 37.3685 112.312 37.3685 111.167C37.3685 110.022 36.4403 109.094 35.2953 109.094C34.1502 109.094 33.222 110.022 33.222 111.167C33.222 112.312 34.1502 113.241 35.2953 113.241Z" fill="#0A1B43"/>
<path d="M17.1813 98.8484C15.7118 92.2666 20.4091 85.6159 27.6729 83.9938C34.9367 82.3716 42.0165 86.3922 43.4859 92.9739C44.9554 99.5557 40.1413 101.983 32.8775 103.605C25.6137 105.227 18.6507 105.43 17.1813 98.8484Z" fill="#D6D6D6"/>
<path d="M22.5583 111.229C23.2344 109.804 20.1015 106.902 15.5609 104.748C11.0203 102.594 6.7914 102.004 6.11534 103.43C5.43928 104.855 8.57209 107.757 13.1127 109.911C17.6533 112.065 21.8822 112.655 22.5583 111.229Z" fill="#0A1B43"/>
<path d="M25.8954 122.341C25.8954 124.123 30.4816 127.64 35.5706 127.64C40.6597 127.64 45.4312 122.625 45.4312 120.844C45.4312 119.062 40.6596 121.189 35.5706 121.189C30.4816 121.189 25.8954 120.56 25.8954 122.341Z" fill="white"/>
<path d="M98.2917 141.809C100.836 141.809 102.899 141.036 102.899 140.081C102.899 139.127 100.836 138.354 98.2917 138.354C95.7472 138.354 93.6844 139.127 93.6844 140.081C93.6844 141.036 95.7472 141.809 98.2917 141.809Z" fill="#0A1B43"/>
<path d="M87.2343 141.579C89.7788 141.579 91.8416 140.805 91.8416 139.851C91.8416 138.897 89.7788 138.123 87.2343 138.123C84.6898 138.123 82.627 138.897 82.627 139.851C82.627 140.805 84.6898 141.579 87.2343 141.579Z" fill="#0A1B43"/>
<path d="M81.865 114.605C82.653 113.238 79.7623 110.095 75.4085 107.585C71.0547 105.075 66.8865 104.148 66.0986 105.515C65.3107 106.882 68.2014 110.025 72.5552 112.535C76.909 115.046 81.0771 115.972 81.865 114.605Z" fill="#0A1B43"/>
<path d="M94.6059 133.976C104.657 133.976 112.805 125.827 112.805 115.775C112.805 105.723 104.657 97.5737 94.6059 97.5737C84.5551 97.5737 76.4073 105.723 76.4073 115.775C76.4073 125.827 84.5551 133.976 94.6059 133.976Z" fill="#0A1B43"/>
<path d="M102.899 130.059H97.3702V139.966H102.899V130.059Z" fill="#0A1B43"/>
<path d="M91.8416 130.059H86.3129V139.966H91.8416V130.059Z" fill="#0A1B43"/>
<path d="M90.3421 117.388C93.7772 117.388 96.5619 114.603 96.5619 111.167C96.5619 107.732 93.7772 104.947 90.3421 104.947C86.907 104.947 84.1223 107.732 84.1223 111.167C84.1223 114.603 86.907 117.388 90.3421 117.388Z" fill="white"/>
<path d="M88.8434 111.783C89.6558 110.971 89.661 109.659 88.8551 108.852C88.0491 108.045 86.7373 108.049 85.9249 108.861C85.1126 109.673 85.1073 110.985 85.9133 111.792C86.7192 112.598 88.0311 112.594 88.8434 111.783Z" fill="#0A1B43"/>
<path d="M96.5629 103.605C89.2991 101.983 84.4851 99.5557 85.9545 92.9739C87.424 86.3922 94.5037 82.3716 101.768 83.9938C109.031 85.6159 113.729 92.2666 112.259 98.8483C110.79 105.43 103.827 105.228 96.5629 103.605Z" fill="#215ADE"/>
<path d="M113.636 129.649C115.161 129.244 115.351 124.978 114.061 120.12C112.771 115.262 110.489 111.653 108.965 112.058C107.44 112.463 107.25 116.729 108.54 121.587C109.83 126.445 112.112 130.054 113.636 129.649Z" fill="#0A1B43"/>
<path d="M90.483 121.189C87.1419 121.189 84.0093 119.063 84.0093 120.844C84.0093 122.625 87.1419 127.64 90.483 127.64C93.824 127.64 96.8349 124.123 96.8349 122.341C96.8349 120.56 93.824 121.189 90.483 121.189Z" fill="white"/>
<path d="M66.9641 85.5968H65.348C63.9002 85.5951 62.5122 85.0192 61.4885 83.9953C60.4647 82.9715 59.8889 81.5833 59.8873 80.1353V78.7783C59.8873 75.4172 60.524 72.6029 61.7799 70.4136C63.3019 67.8671 65.0775 65.481 67.0797 63.2919C68.4089 61.955 69.6149 60.5011 70.6832 58.9478C71.4497 57.7411 71.8454 56.336 71.8213 54.9065C71.8213 51.5349 69.625 49.8958 65.1066 49.8958C62.6002 49.9241 60.1096 50.298 57.7053 51.0068C56.7781 51.2715 55.8021 51.3174 54.8542 51.1408C53.9062 50.9642 53.0122 50.57 52.2424 49.9892C51.4727 49.4083 50.8482 48.6568 50.4182 47.7936C49.9882 46.9304 49.7644 45.9792 49.7643 45.0148V42.2678C49.759 41.0852 50.0968 39.9265 50.7368 38.9321C51.3767 37.9377 52.2913 37.1503 53.3697 36.6654C57.616 34.853 62.1952 33.9521 66.8114 34.0207C71.6474 34.0207 76.0129 34.8332 79.787 36.4351C83.568 38.0408 86.5553 40.3049 88.6656 43.1648C90.7696 46.0045 91.8879 49.4541 91.8501 52.9882C91.8501 56.7834 90.8141 60.0888 88.771 62.8127C86.7502 65.509 83.8534 68.4607 80.1609 71.5864C78.2154 73.2045 76.3718 74.9415 74.6408 76.7874C73.5227 77.9919 72.7325 79.4632 72.3458 81.0606C72.1304 82.3313 71.4714 83.4844 70.486 84.3149C69.5007 85.1455 68.2528 85.5997 66.9641 85.5968Z" fill="#215ADE"/>
<path d="M66.0656 111.28H65.8524C63.1693 111.278 60.5968 110.211 58.7001 108.313C56.8035 106.415 55.7381 103.841 55.7381 101.158C55.7381 98.4744 56.8035 95.9008 58.7001 94.0027C60.5968 92.1046 63.1693 91.0374 65.8524 91.0356H66.0656C67.3952 91.0348 68.712 91.296 69.9407 91.8043C71.1693 92.3126 72.2858 93.058 73.2263 93.9981C74.1668 94.9381 74.9129 96.0542 75.4219 97.2827C75.931 98.5113 76.193 99.828 76.193 101.158C76.193 102.488 75.931 103.804 75.4219 105.033C74.9129 106.262 74.1668 107.378 73.2263 108.318C72.2858 109.258 71.1693 110.003 69.9407 110.511C68.712 111.02 67.3952 111.281 66.0656 111.28Z" fill="#215ADE"/>
<path d="M131.839 142H0.422562C0.310492 142 0.203017 141.955 0.123772 141.876C0.0445259 141.797 0 141.689 0 141.577C0 141.465 0.0445259 141.358 0.123772 141.279C0.203017 141.199 0.310492 141.155 0.422562 141.155H131.839C131.951 141.155 132.059 141.199 132.138 141.279C132.217 141.358 132.262 141.465 132.262 141.577C132.262 141.689 132.217 141.797 132.138 141.876C132.059 141.955 131.951 142 131.839 142Z" fill="#D6D6D6"/>
<path d="M220.577 142H150.432C150.32 142 150.213 141.955 150.133 141.876C150.054 141.797 150.01 141.689 150.01 141.577C150.01 141.465 150.054 141.358 150.133 141.279C150.213 141.199 150.32 141.155 150.432 141.155H220.577C220.69 141.155 220.797 141.199 220.876 141.279C220.955 141.358 221 141.465 221 141.577C221 141.689 220.955 141.797 220.876 141.876C220.797 141.955 220.69 142 220.577 142Z" fill="#D6D6D6"/>
<path d="M177.041 129.655C182.066 129.557 186.114 128.199 186.083 126.621C186.052 125.044 181.954 123.844 176.929 123.943C171.905 124.041 167.857 125.399 167.888 126.977C167.919 128.555 172.017 129.754 177.041 129.655Z" fill="#0A1B43"/>
<path d="M172.474 62.9701H161.487C160.927 62.9695 160.39 62.7467 159.994 62.3505C159.598 61.9544 159.375 61.4173 159.374 60.857V49.869C159.375 49.3087 159.598 48.7716 159.994 48.3755C160.39 47.9793 160.927 47.7565 161.487 47.7559H172.474C173.034 47.7565 173.571 47.9793 173.967 48.3755C174.363 48.7716 174.586 49.3087 174.586 49.869V60.857C174.586 61.4173 174.363 61.9544 173.967 62.3505C173.571 62.7467 173.034 62.9695 172.474 62.9701ZM161.487 48.6011C161.151 48.6015 160.829 48.7352 160.591 48.9728C160.353 49.2105 160.22 49.5328 160.219 49.869V60.857C160.22 61.1932 160.353 61.5155 160.591 61.7532C160.829 61.9908 161.151 62.1245 161.487 62.1249H172.474C172.81 62.1245 173.132 61.9908 173.37 61.7532C173.607 61.5155 173.741 61.1932 173.741 60.857V49.869C173.741 49.5328 173.607 49.2105 173.37 48.9728C173.132 48.7352 172.81 48.6015 172.474 48.6011H161.487Z" fill="#F2F2F2"/>
<path d="M177.544 55.7858H166.558C165.998 55.7852 165.461 55.5623 165.064 55.1662C164.668 54.77 164.446 54.233 164.445 53.6727V42.6846C164.446 42.1244 164.668 41.5873 165.064 41.1912C165.461 40.795 165.998 40.5722 166.558 40.5715H177.544C178.104 40.5722 178.641 40.795 179.038 41.1912C179.434 41.5873 179.656 42.1244 179.657 42.6846V53.6727C179.656 54.233 179.434 54.77 179.038 55.1662C178.641 55.5623 178.104 55.7852 177.544 55.7858ZM166.558 41.4168C166.222 41.4171 165.899 41.5508 165.662 41.7885C165.424 42.0262 165.29 42.3485 165.29 42.6846V53.6727C165.29 54.0089 165.424 54.3311 165.662 54.5688C165.899 54.8065 166.222 54.9402 166.558 54.9406H177.544C177.88 54.9402 178.203 54.8065 178.44 54.5688C178.678 54.3311 178.812 54.0089 178.812 53.6727V42.6846C178.812 42.3485 178.678 42.0262 178.44 41.7885C178.203 41.5508 177.88 41.4171 177.544 41.4168H166.558Z" fill="#F2F2F2"/>
<path d="M90.9191 20.7084H79.9325C79.3723 20.7078 78.8353 20.4849 78.4392 20.0888C78.0431 19.6927 77.8203 19.1556 77.8196 18.5953V7.60724C77.8203 7.047 78.0431 6.50991 78.4392 6.11377C78.8353 5.71762 79.3723 5.49478 79.9325 5.49414H90.9191C91.4792 5.49478 92.0162 5.71762 92.4123 6.11377C92.8084 6.50991 93.0312 7.047 93.0319 7.60724V18.5953C93.0312 19.1556 92.8084 19.6927 92.4123 20.0888C92.0162 20.4849 91.4792 20.7078 90.9191 20.7084ZM79.9325 6.33938C79.5964 6.33975 79.2741 6.47344 79.0365 6.71113C78.7988 6.94882 78.6651 7.27109 78.6648 7.60724V18.5953C78.6651 18.9315 78.7988 19.2537 79.0365 19.4914C79.2741 19.7291 79.5964 19.8628 79.9325 19.8632H90.9191C91.2552 19.8628 91.5774 19.7291 91.8151 19.4914C92.0527 19.2537 92.1864 18.9315 92.1868 18.5953V7.60724C92.1864 7.27109 92.0527 6.94882 91.8151 6.71113C91.5774 6.47344 91.2552 6.33975 90.9191 6.33938H79.9325Z" fill="#F2F2F2"/>
<path d="M84.1581 15.2143H73.1715C72.6113 15.2136 72.0743 14.9908 71.6782 14.5947C71.2821 14.1985 71.0593 13.6614 71.0586 13.1012V2.1131C71.0593 1.55286 71.2821 1.01577 71.6782 0.619625C72.0743 0.223482 72.6113 0.000640924 73.1715 0H84.1581C84.7182 0.000640924 85.2552 0.223482 85.6513 0.619625C86.0474 1.01577 86.2702 1.55286 86.2709 2.1131V13.1012C86.2702 13.6614 86.0474 14.1985 85.6513 14.5947C85.2552 14.9908 84.7182 15.2136 84.1581 15.2143ZM73.1715 0.845238C72.8354 0.845605 72.5131 0.9793 72.2755 1.21699C72.0378 1.45468 71.9041 1.77695 71.9038 2.1131V13.1012C71.9041 13.4373 72.0378 13.7596 72.2755 13.9973C72.5131 14.235 72.8354 14.3687 73.1715 14.369H84.1581C84.4942 14.3687 84.8164 14.235 85.0541 13.9973C85.2917 13.7596 85.4254 13.4373 85.4258 13.1012V2.1131C85.4254 1.77695 85.2917 1.45468 85.0541 1.21699C84.8164 0.9793 84.4942 0.845605 84.1581 0.845238H73.1715Z" fill="#F2F2F2"/>
<path d="M135.736 80.1443C137.245 80.1443 138.468 78.9207 138.468 77.4113C138.468 75.9018 137.245 74.6782 135.736 74.6782C134.226 74.6782 133.003 75.9018 133.003 77.4113C133.003 78.9207 134.226 80.1443 135.736 80.1443Z" fill="#F2F2F2"/>
<path d="M25.8695 70.4241C27.3787 70.4241 28.6021 69.2004 28.6021 67.691C28.6021 66.1816 27.3787 64.958 25.8695 64.958C24.3602 64.958 23.1368 66.1816 23.1368 67.691C23.1368 69.2004 24.3602 70.4241 25.8695 70.4241Z" fill="#F2F2F2"/>
<path d="M210.107 94.0906C211.616 94.0906 212.839 92.867 212.839 91.3575C212.839 89.8481 211.616 88.6245 210.107 88.6245C208.597 88.6245 207.374 89.8481 207.374 91.3575C207.374 92.867 208.597 94.0906 210.107 94.0906Z" fill="#F2F2F2"/>
</g>
<defs>
<clipPath id="clip0_39_1023">
<rect width="221" height="142" fill="white"/>
</clipPath>
</defs>
</svg>
