<svg width="239" height="196" viewBox="0 0 239 196" fill="none" xmlns="http://www.w3.org/2000/svg">
<g clip-path="url(#clip0_35_533)">
<path d="M127.233 45.6H44.7325C42.744 45.5977 40.8377 44.8078 39.4316 43.4033C38.0256 41.9989 37.2347 40.0947 37.2324 38.1085V7.49142C37.2347 5.50527 38.0256 3.60111 39.4316 2.19668C40.8377 0.792256 42.744 0.00225863 44.7325 0H127.233C129.222 0.00225777 131.128 0.792256 132.534 2.19668C133.94 3.60111 134.731 5.50527 134.733 7.49142V38.1085C134.731 40.0947 133.94 41.9989 132.534 43.4033C131.128 44.8078 129.222 45.5977 127.233 45.6Z" fill="white"/>
<path d="M127.233 45.6H44.7325C42.744 45.5977 40.8377 44.8078 39.4316 43.4033C38.0256 41.9989 37.2347 40.0947 37.2324 38.1085V7.49142C37.2347 5.50527 38.0256 3.60111 39.4316 2.19668C40.8377 0.792256 42.744 0.00225863 44.7325 0H127.233C129.222 0.00225777 131.128 0.792256 132.534 2.19668C133.94 3.60111 134.731 5.50527 134.733 7.49142V38.1085C134.731 40.0947 133.94 41.9989 132.534 43.4033C131.128 44.8078 129.222 45.5977 127.233 45.6ZM44.7325 0.651428C42.9169 0.653462 41.1763 1.37476 39.8925 2.65706C38.6088 3.93937 37.8866 5.67797 37.8846 7.49142V38.1085C37.8867 39.922 38.6088 41.6606 39.8926 42.9429C41.1764 44.2252 42.9169 44.9465 44.7325 44.9485H127.233C129.049 44.9465 130.789 44.2252 132.073 42.9429C133.357 41.6606 134.079 39.922 134.081 38.1085V7.49142C134.079 5.67797 133.357 3.93937 132.073 2.65706C130.789 1.37476 129.049 0.653462 127.233 0.651428H44.7325Z" fill="#0A1B43"/>
<path d="M158.451 49.7668H114.569C114.292 49.7636 114.016 49.7287 113.747 49.6628C112.945 49.4701 112.23 49.0125 111.72 48.3641C111.21 47.7156 110.934 46.9142 110.936 46.0895V31.1912C110.938 30.2167 111.326 29.2826 112.017 28.5938C112.707 27.9051 113.642 27.5179 114.618 27.5172H158.451C159.042 27.5157 159.624 27.658 160.147 27.932C160.356 28.0399 160.553 28.1684 160.736 28.3154C161.172 28.6569 161.525 29.0935 161.767 29.5918C162.009 30.0902 162.134 30.6373 162.132 31.1912V46.0895C162.131 47.0644 161.743 47.9991 161.053 48.6885C160.363 49.3779 159.427 49.7657 158.451 49.7668Z" fill="white"/>
<path d="M155.51 49.4411C157.502 44.6043 159.601 39.8152 161.806 35.0739V43.1125C160.303 45.3978 158.563 47.5189 156.615 49.4411H155.51Z" fill="#E6E6E6"/>
<path d="M160.531 28.5693C156.589 35.6341 152.464 42.5913 148.156 49.4411H147.406C151.786 42.4838 155.982 35.4104 159.997 28.2208C160.186 28.3189 160.365 28.4357 160.531 28.5693Z" fill="#E6E6E6"/>
<path d="M131.601 36.2823C129.024 40.8321 126.181 45.226 123.086 49.4411H118.616C121.544 45.8778 124.475 42.3145 127.407 38.7512C128.248 37.7252 129.162 36.6503 130.423 36.2334L131.601 36.2823Z" fill="#E6E6E6"/>
<path d="M125.659 35.5526C125.193 36.0379 124.746 36.5428 124.326 37.0672C123.4 38.1811 122.486 39.3048 121.57 40.4253C121 41.1223 120.429 41.8193 119.865 42.5164C119.686 42.4014 119.516 42.2729 119.356 42.132C118.455 41.3508 117.896 40.2482 117.799 39.0605C117.702 37.8727 118.075 36.6942 118.837 35.7776C119.6 34.861 120.691 34.2791 121.878 34.1567C123.065 34.0343 124.253 34.381 125.187 35.1227C125.355 35.2538 125.513 35.3975 125.659 35.5526Z" fill="#1A59E9"/>
<path d="M150.876 38.7185L142.306 35.5884L138.051 34.0348C136.665 33.5299 135.282 32.9534 133.851 32.5886C132.606 32.2332 131.284 32.2502 130.048 32.6375C128.947 33.0447 127.939 33.6694 127.084 34.4745C126.706 34.823 126.34 35.1824 125.985 35.5526C125.519 36.0379 125.072 36.5428 124.652 37.0672C123.726 38.1811 122.813 39.3048 121.896 40.4253C121.326 41.1223 120.755 41.8193 120.191 42.5164C118.306 44.8192 116.432 47.1274 114.569 49.441C114.318 49.4381 114.069 49.4064 113.826 49.3466C115.769 46.9363 117.721 44.5314 119.682 42.132C119.907 41.8519 120.139 41.5685 120.367 41.2884C121.322 40.1191 122.279 38.9509 123.236 37.7837C123.977 36.8815 124.71 35.9728 125.513 35.1227C125.584 35.0445 125.656 34.9696 125.731 34.8914C127.358 33.2107 129.39 31.7255 131.822 31.6864C133.254 31.6636 134.637 32.1163 135.967 32.5951C137.399 33.113 138.827 33.6407 140.258 34.1651L148.887 37.318L151.045 38.1062C151.427 38.243 151.264 38.8619 150.876 38.7185Z" fill="#E6E6E6"/>
<path d="M158.451 49.7668H114.569C114.292 49.7636 114.016 49.7287 113.747 49.6628C112.945 49.4701 112.23 49.0125 111.72 48.3641C111.21 47.7156 110.934 46.9142 110.936 46.0895V31.1912C110.938 30.2167 111.326 29.2826 112.017 28.5938C112.707 27.9051 113.642 27.5179 114.618 27.5172H158.451C159.042 27.5157 159.624 27.658 160.147 27.932C160.356 28.0399 160.553 28.1684 160.736 28.3154C161.172 28.6569 161.525 29.0935 161.767 29.5918C162.009 30.0902 162.134 30.6373 162.132 31.1912V46.0895C162.131 47.0644 161.743 47.9991 161.053 48.6885C160.363 49.3779 159.427 49.7657 158.451 49.7668ZM114.618 28.1687C113.815 28.1691 113.045 28.4876 112.478 29.0543C111.91 29.6209 111.59 30.3894 111.589 31.1912V46.0895C111.587 46.7682 111.814 47.4277 112.234 47.9613C112.654 48.495 113.241 48.8716 113.902 49.0301C114.122 49.0839 114.347 49.1125 114.573 49.1154H158.451C159.254 49.1144 160.024 48.7953 160.592 48.2281C161.16 47.6608 161.479 46.8917 161.48 46.0895V31.1912C161.482 30.7354 161.379 30.2853 161.179 29.8752C160.98 29.4652 160.689 29.1061 160.33 28.8253C160.18 28.7044 160.018 28.5988 159.847 28.5101C159.416 28.2846 158.937 28.1674 158.451 28.1687H114.618Z" fill="#0A1B43"/>
<path d="M71.1804 63.999H7.91901C5.93055 63.9968 4.02418 63.2068 2.61813 61.8024C1.21208 60.3979 0.421179 58.4938 0.418945 56.5076V45.4333C0.421206 43.4472 1.21211 41.543 2.61816 40.1386C4.0242 38.7342 5.93056 37.9442 7.91901 37.9419H71.1804C73.1688 37.9442 75.0752 38.7342 76.4812 40.1386C77.8873 41.543 78.6782 43.4472 78.6805 45.4333V56.5076C78.6782 58.4938 77.8873 60.3979 76.4813 61.8024C75.0752 63.2068 73.1689 63.9968 71.1804 63.999Z" fill="white"/>
<path d="M71.1804 63.999H7.91901C5.93055 63.9968 4.02418 63.2068 2.61813 61.8024C1.21208 60.3979 0.421179 58.4938 0.418945 56.5076V45.4333C0.421206 43.4472 1.21211 41.543 2.61816 40.1386C4.0242 38.7342 5.93056 37.9442 7.91901 37.9419H71.1804C73.1688 37.9442 75.0752 38.7342 76.4812 40.1386C77.8873 41.543 78.6782 43.4472 78.6805 45.4333V56.5076C78.6782 58.4938 77.8873 60.3979 76.4813 61.8024C75.0752 63.2068 73.1689 63.9968 71.1804 63.999ZM7.91901 38.5933C6.10346 38.5954 4.36286 39.3166 3.07907 40.599C1.79529 41.8813 1.07316 43.6199 1.07112 45.4333V56.5076C1.07319 58.321 1.79532 60.0596 3.0791 61.3419C4.36288 62.6242 6.10347 63.3455 7.91901 63.3476H71.1804C72.9959 63.3455 74.7365 62.6242 76.0203 61.3419C77.3041 60.0596 78.0262 58.321 78.0283 56.5076V45.4333C78.0262 43.6199 77.3041 41.8813 76.0203 40.599C74.7365 39.3166 72.9959 38.5954 71.1804 38.5933H7.91901Z" fill="#0A1B43"/>
<path d="M26.4941 57.77H16.3239C15.7803 57.7694 15.2591 57.5535 14.8747 57.1695C14.4903 56.7855 14.274 56.2649 14.2734 55.7219V46.2189C14.274 45.6759 14.4903 45.1553 14.8747 44.7713C15.2591 44.3874 15.7803 44.1714 16.3239 44.1708H26.4941C27.0377 44.1714 27.5589 44.3874 27.9433 44.7713C28.3277 45.1553 28.5439 45.6759 28.5445 46.2189V55.722C28.5439 56.265 28.3277 56.7855 27.9433 57.1695C27.5589 57.5535 27.0377 57.7694 26.4941 57.77Z" fill="#1A59E9"/>
<path d="M44.6348 57.77H34.4646C33.921 57.7694 33.3998 57.5535 33.0154 57.1695C32.631 56.7855 32.4148 56.2649 32.4142 55.7219V46.2189C32.4148 45.6759 32.631 45.1553 33.0154 44.7713C33.3998 44.3874 33.921 44.1714 34.4646 44.1708H44.6348C45.1785 44.1714 45.6996 44.3874 46.084 44.7713C46.4684 45.1553 46.6847 45.6759 46.6853 46.2189V55.722C46.6847 56.265 46.4684 56.7855 46.084 57.1695C45.6996 57.5535 45.1784 57.7694 44.6348 57.77Z" fill="#E6E6E6"/>
<path d="M62.7756 57.77H52.6054C52.0618 57.7694 51.5406 57.5535 51.1562 57.1695C50.7718 56.7855 50.5555 56.2649 50.5549 55.7219V46.2189C50.5555 45.6759 50.7718 45.1553 51.1562 44.7713C51.5406 44.3874 52.0618 44.1714 52.6054 44.1708H62.7756C63.3192 44.1714 63.8404 44.3874 64.2248 44.7713C64.6092 45.1553 64.8254 45.6759 64.826 46.2189V55.722C64.8254 56.265 64.6092 56.7855 64.2248 57.1695C63.8404 57.5535 63.3192 57.7694 62.7756 57.77Z" fill="#E6E6E6"/>
<path d="M90.0051 18.0732H76.9615C76.6155 18.0732 76.2838 17.936 76.0392 17.6916C75.7945 17.4473 75.6571 17.1159 75.6571 16.7704C75.6571 16.4248 75.7945 16.0935 76.0392 15.8491C76.2838 15.6048 76.6155 15.4675 76.9615 15.4675H90.0051C90.351 15.4675 90.6828 15.6048 90.9274 15.8491C91.172 16.0935 91.3094 16.4248 91.3094 16.7704C91.3094 17.1159 91.172 17.4473 90.9274 17.6916C90.6828 17.936 90.351 18.0732 90.0051 18.0732Z" fill="#CCCCCC"/>
<path d="M118.049 25.239H76.6354C76.2894 25.239 75.9577 25.1017 75.713 24.8574C75.4684 24.6131 75.331 24.2817 75.331 23.9362C75.331 23.5906 75.4684 23.2592 75.713 23.0149C75.9577 22.7706 76.2894 22.6333 76.6354 22.6333H118.049C118.395 22.6333 118.726 22.7706 118.971 23.0149C119.216 23.2592 119.353 23.5906 119.353 23.9362C119.353 24.2817 119.216 24.6131 118.971 24.8574C118.726 25.1017 118.395 25.239 118.049 25.239Z" fill="#CCCCCC"/>
<path d="M61.4709 29.0886C66.3008 29.0886 70.2163 25.1777 70.2163 20.3533C70.2163 15.529 66.3008 11.618 61.4709 11.618C56.641 11.618 52.7255 15.529 52.7255 20.3533C52.7255 25.1777 56.641 29.0886 61.4709 29.0886Z" fill="#1A59E9"/>
<path d="M156.616 102.108H74.1152C72.1267 102.105 70.2203 101.315 68.8143 99.9109C67.4082 98.5065 66.6173 96.6023 66.6151 94.6161V63.999C66.6174 62.0128 67.4083 60.1087 68.8143 58.7043C70.2204 57.2998 72.1267 56.5098 74.1152 56.5076H156.616C158.604 56.5098 160.511 57.2998 161.917 58.7043C163.323 60.1087 164.114 62.0128 164.116 63.999V94.6161C164.114 96.6023 163.323 98.5065 161.917 99.9109C160.511 101.315 158.604 102.105 156.616 102.108Z" fill="white"/>
<path d="M156.616 102.108H74.1152C72.1267 102.105 70.2203 101.315 68.8143 99.9109C67.4082 98.5065 66.6173 96.6023 66.6151 94.6161V63.999C66.6174 62.0128 67.4083 60.1087 68.8143 58.7043C70.2204 57.2998 72.1267 56.5098 74.1152 56.5076H156.616C158.604 56.5098 160.511 57.2998 161.917 58.7043C163.323 60.1087 164.114 62.0128 164.116 63.999V94.6161C164.114 96.6023 163.323 98.5065 161.917 99.9109C160.511 101.315 158.604 102.105 156.616 102.108ZM74.1152 57.159C72.2996 57.161 70.559 57.8823 69.2752 59.1646C67.9915 60.4469 67.2693 62.1855 67.2673 63.999V94.6161C67.2694 96.4296 67.9915 98.1681 69.2753 99.4505C70.559 100.733 72.2996 101.454 74.1152 101.456H156.616C158.431 101.454 160.172 100.733 161.456 99.4505C162.74 98.1681 163.462 96.4296 163.464 94.6161V63.999C163.462 62.1855 162.74 60.4469 161.456 59.1646C160.172 57.8823 158.431 57.161 156.616 57.159H74.1152Z" fill="#0A1B43"/>
<path d="M106.248 68.6383H92.3899C92.2159 68.6386 92.0436 68.6046 91.8828 68.5383C91.722 68.472 91.5759 68.3746 91.4528 68.2519C91.3297 68.1291 91.232 67.9833 91.1654 67.8228C91.0988 67.6623 91.0645 67.4902 91.0645 67.3165C91.0645 67.1427 91.0988 66.9707 91.1654 66.8101C91.232 66.6496 91.3297 66.5038 91.4528 66.3811C91.5759 66.2583 91.722 66.161 91.8828 66.0947C92.0436 66.0284 92.2159 65.9944 92.3899 65.9946H106.248C106.598 65.9952 106.934 66.1347 107.182 66.3825C107.43 66.6304 107.569 66.9663 107.569 67.3165C107.569 67.6667 107.43 68.0026 107.182 68.2504C106.934 68.4982 106.598 68.6377 106.248 68.6383Z" fill="#1A59E9"/>
<path d="M137.312 74.0447H92.3899C92.039 74.0447 91.7024 73.9054 91.4542 73.6575C91.206 73.4096 91.0666 73.0734 91.0666 72.7228C91.0666 72.3723 91.206 72.036 91.4542 71.7882C91.7024 71.5403 92.039 71.401 92.3899 71.401H137.312C137.663 71.401 138 71.5403 138.248 71.7882C138.496 72.036 138.635 72.3723 138.635 72.7228C138.635 73.0734 138.496 73.4096 138.248 73.6575C138 73.9054 137.663 74.0447 137.312 74.0447Z" fill="#E6E6E6"/>
<path d="M137.312 80.2504H92.3899C92.2162 80.2504 92.0441 80.2162 91.8835 80.1497C91.7229 80.0833 91.5771 79.9859 91.4542 79.8632C91.3313 79.7404 91.2338 79.5947 91.1673 79.4344C91.1008 79.274 91.0666 79.1021 91.0666 78.9285C91.0666 78.7549 91.1008 78.583 91.1673 78.4227C91.2338 78.2623 91.3313 78.1166 91.4542 77.9938C91.5771 77.8711 91.7229 77.7737 91.8835 77.7073C92.0441 77.6409 92.2162 77.6067 92.3899 77.6067H137.312C137.663 77.6067 138 77.746 138.248 77.9938C138.496 78.2417 138.635 78.578 138.635 78.9285C138.635 79.2791 138.496 79.6153 138.248 79.8632C138 80.1111 137.663 80.2504 137.312 80.2504Z" fill="#E6E6E6"/>
<path d="M137.312 86.456H92.3899C92.2159 86.4563 92.0436 86.4223 91.8828 86.356C91.722 86.2897 91.5759 86.1924 91.4528 86.0696C91.3297 85.9469 91.232 85.801 91.1654 85.6405C91.0988 85.48 91.0645 85.308 91.0645 85.1342C91.0645 84.9605 91.0988 84.7884 91.1654 84.6279C91.232 84.4674 91.3297 84.3216 91.4528 84.1988C91.5759 84.076 91.722 83.9787 91.8828 83.9124C92.0436 83.8461 92.2159 83.8121 92.3899 83.8124H137.312C137.663 83.8129 137.999 83.9524 138.246 84.2003C138.494 84.4481 138.633 84.784 138.633 85.1342C138.633 85.4844 138.494 85.8203 138.246 86.0682C137.999 86.316 137.663 86.4555 137.312 86.456Z" fill="#E6E6E6"/>
<path d="M137.312 92.6618H92.3899C92.039 92.6618 91.7024 92.5226 91.4542 92.2747C91.206 92.0268 91.0666 91.6906 91.0666 91.34C91.0666 90.9894 91.206 90.6532 91.4542 90.4053C91.7024 90.1575 92.039 90.0182 92.3899 90.0182H137.312C137.663 90.0182 138 90.1575 138.248 90.4053C138.496 90.6532 138.635 90.9894 138.635 91.34C138.635 91.6906 138.496 92.0268 138.248 92.2747C138 92.5226 137.663 92.6618 137.312 92.6618Z" fill="#E6E6E6"/>
<path d="M195.586 190.516L191.058 190.516L188.903 173.069L195.587 173.07L195.586 190.516Z" fill="#FFB6B6"/>
<path d="M195.745 195.234L181.82 195.234V195.058C181.82 193.622 182.391 192.245 183.408 191.23C184.424 190.215 185.803 189.644 187.24 189.644L189.784 187.717L194.53 189.645L195.746 189.645L195.745 195.234Z" fill="#0A1B43"/>
<path d="M227.325 182.196L223.621 184.797L211.812 171.764L217.279 167.924L227.325 182.196Z" fill="#FFB6B6"/>
<path d="M230.173 185.964L218.782 193.964L218.681 193.82C217.854 192.646 217.528 191.191 217.775 189.777C218.022 188.362 218.821 187.104 219.997 186.278L219.997 186.278L220.968 183.239L225.96 182.09L226.954 181.391L230.173 185.964Z" fill="#0A1B43"/>
<path d="M213.628 103.721L214.004 104.524C216.477 109.801 217.11 115.701 216.148 121.448C216.077 121.673 216.091 121.915 216.187 122.13C216.783 122.829 215.848 125.863 215.312 127.557L214.828 130.552C214.828 130.552 215.63 133.335 214.413 133.13C213.196 132.926 215.008 135.894 213.847 136.637L210.836 155.307L223.399 175.989L218.746 182.727L200.135 158.793L199.902 137.182L197.11 154.61L196.878 182.03L188.413 181.131L185.312 154.547L188.27 117.783L192.923 101.843L213.628 103.721Z" fill="#0A1B43"/>
<path d="M161.205 97.338C161.644 96.8486 162.257 96.5496 162.913 96.5045C163.569 96.4595 164.217 96.672 164.719 97.0969C164.82 97.1849 164.913 97.281 164.998 97.3844L173.293 94.4208L176.28 98.0961L164.476 100.929C164.02 101.247 163.472 101.405 162.916 101.378C162.361 101.352 161.829 101.143 161.405 100.783C161.166 100.576 160.97 100.324 160.828 100.041C160.687 99.7588 160.602 99.4511 160.579 99.1358C160.557 98.8204 160.596 98.5038 160.696 98.2038C160.796 97.9038 160.954 97.6264 161.161 97.3874C161.176 97.3708 161.19 97.3543 161.205 97.338Z" fill="#FFB6B6"/>
<path d="M207.812 55.8561L200.964 56.1818L197.689 61.8324L193.037 63.2267L189.082 72.9863L191.507 103.41C191.507 103.41 191.994 105.251 191.098 104.982C190.203 104.713 190.568 107.019 190.568 107.019L187.268 119.696L217.269 117.09L215.603 103.659C215.603 103.659 217.919 103.734 216.29 102.107C214.662 100.481 213.87 100.999 215.434 99.076C216.999 97.153 217.231 95.7588 217.231 95.7588L217.929 86.2315L219.08 72.8234C219.262 70.6958 218.913 68.5563 218.062 66.5972C217.211 64.6381 215.887 62.9209 214.207 61.6001L207.812 55.8561Z" fill="#D6D6D6"/>
<path d="M223.974 122.27C224.342 121.725 224.482 121.059 224.365 120.412C224.249 119.765 223.884 119.19 223.349 118.808C223.239 118.732 223.122 118.665 223.001 118.608L223.849 109.849L219.551 107.856L219.688 119.98C219.491 120.499 219.472 121.069 219.633 121.601C219.795 122.133 220.128 122.596 220.581 122.919C220.84 123.1 221.133 123.228 221.442 123.296C221.751 123.364 222.07 123.371 222.382 123.316C222.694 123.261 222.991 123.145 223.258 122.975C223.525 122.805 223.756 122.584 223.937 122.325C223.95 122.307 223.962 122.288 223.974 122.27Z" fill="#FFB6B6"/>
<path d="M217.488 65.3992C217.488 65.3992 227.349 88.8629 227.051 97.8733L223.79 114.485L219.225 114.159L219.551 99.1761C221.217 97.4751 214.245 87.8676 211.947 81.1062L217.488 65.3992Z" fill="#D6D6D6"/>
<path d="M193.502 62.9944C193.502 62.9944 181.26 85.2598 176.519 91.8085L172.92 94.6162V99.1762L181.288 99.3607C181.288 99.3607 193.735 89.0201 193.269 83.9079C192.804 78.7957 193.502 62.9944 193.502 62.9944Z" fill="#D6D6D6"/>
<path d="M204.261 54.2871C209.057 54.2871 212.945 50.4035 212.945 45.6128C212.945 40.8221 209.057 36.9385 204.261 36.9385C199.465 36.9385 195.577 40.8221 195.577 45.6128C195.577 50.4035 199.465 54.2871 204.261 54.2871Z" fill="#FFB6B6"/>
<path d="M207.617 53.5761C205.124 53.4944 204.898 52.8369 202.406 52.7553C201.613 52.7293 200.676 52.6206 200.293 51.9263C200.019 51.4318 200.145 50.8091 200.385 50.2979C200.67 49.8101 200.926 49.3064 201.153 48.7895C201.29 48.384 201.326 47.9515 201.258 47.5291C201.19 47.1067 201.02 46.7073 200.762 46.3653C200.505 46.0233 200.168 45.749 199.781 45.5662C199.394 45.3834 198.968 45.2975 198.54 45.3159C197.781 45.3487 197.069 45.7049 196.313 45.77C195.276 45.8593 192.982 42.4387 193.46 41.5147C193.924 40.6153 194.86 39.9367 195.007 38.9352C195.103 38.2802 194.832 37.6294 194.795 36.9684C194.741 35.9884 197.228 38.1982 196.772 37.3284C195.655 35.1948 206.184 32.5497 207.918 35.2222C208.566 36.2211 209.72 36.153 210.749 36.7528C211.424 37.146 213.127 38.5023 213.514 39.3477C213.87 40.2104 214.038 41.1387 214.007 42.0712C214.023 46.4078 213.362 50.3969 209.86 52.9602" fill="#0A1B43"/>
<path d="M167.032 193.428C164.677 193.635 162.306 193.314 160.091 192.489C157.876 191.664 155.873 190.355 154.23 188.657C152.081 186.394 150.606 183.481 149.18 180.664C148.764 179.844 148.335 178.996 147.899 178.184C147.412 177.298 147.202 176.287 147.296 175.281C147.389 174.275 147.782 173.32 148.424 172.539C149.039 171.758 149.875 171.179 150.822 170.877C151.77 170.574 152.786 170.562 153.74 170.842L153.949 170.902L155.822 178.203C156.101 177.114 156.701 174.66 157.08 172.256L157.112 172.055L157.298 172.138C159.254 173.002 161.093 174.109 162.772 175.433C165.746 177.816 168.165 180.817 169.861 184.228C171.557 187.639 172.488 191.378 172.591 195.185L172.596 195.412L167.032 193.428Z" fill="#1A59E9"/>
<path d="M238.526 195.9L147.629 196C147.526 196 147.427 195.959 147.354 195.886C147.281 195.814 147.24 195.715 147.24 195.612C147.24 195.509 147.281 195.411 147.354 195.338C147.427 195.265 147.526 195.224 147.629 195.224L238.526 195.124C238.577 195.124 238.628 195.134 238.675 195.153C238.722 195.173 238.765 195.201 238.802 195.237C238.838 195.273 238.866 195.316 238.886 195.363C238.906 195.411 238.916 195.461 238.916 195.512C238.916 195.563 238.906 195.614 238.886 195.661C238.866 195.708 238.838 195.751 238.802 195.787C238.765 195.823 238.722 195.851 238.675 195.871C238.628 195.89 238.577 195.9 238.526 195.9Z" fill="#CACACA"/>
</g>
<defs>
<clipPath id="clip0_35_533">
<rect width="238.496" height="196" fill="white" transform="translate(0.418945)"/>
</clipPath>
</defs>
</svg>
