<svg width="206" height="196" viewBox="0 0 206 196" fill="none" xmlns="http://www.w3.org/2000/svg">
<g clip-path="url(#clip0_35_572)">
<path d="M200.565 0C201.846 0.00143714 203.074 0.510329 203.98 1.41502C204.886 2.31972 205.396 3.54634 205.397 4.82577V166.089C205.396 167.369 204.886 168.596 203.98 169.5C203.074 170.405 201.846 170.914 200.565 170.915H77.4432C76.1619 170.914 74.9335 170.405 74.0275 169.5C73.1214 168.596 72.6118 167.369 72.6103 166.089V4.82577C72.6118 3.54634 73.1214 2.31972 74.0275 1.41503C74.9335 0.510335 76.1619 0.00144372 77.4432 0H200.565Z" fill="#D6D6D6"/>
<path d="M81.1403 64.8692H196.867C198.231 64.8676 199.539 64.3259 200.504 63.3629C201.468 62.3998 202.011 61.094 202.012 59.7321V26.8004C202.011 25.4385 201.468 24.1327 200.504 23.1697C199.539 22.2066 198.231 21.6649 196.867 21.6633H81.1403C79.7763 21.6648 78.4686 22.2066 77.5041 23.1696C76.5396 24.1327 75.9971 25.4385 75.9956 26.8004V59.7321C75.9971 61.0941 76.5396 62.3998 77.5041 63.3629C78.4686 64.326 79.7763 64.8677 81.1403 64.8692Z" fill="white"/>
<path d="M81.1403 115.147H196.867C198.231 115.146 199.539 114.604 200.504 113.641C201.468 112.678 202.011 111.372 202.012 110.01V77.0784C202.011 75.7164 201.468 74.4107 200.504 73.4476C199.539 72.4845 198.231 71.9428 196.867 71.9413H81.1403C79.7763 71.9428 78.4686 72.4845 77.5041 73.4476C76.5396 74.4106 75.9971 75.7164 75.9956 77.0784V110.01C75.9971 111.372 76.5396 112.678 77.5041 113.641C78.4686 114.604 79.7763 115.146 81.1403 115.147Z" fill="white"/>
<path d="M196.867 122.531C198.149 122.532 199.377 123.041 200.283 123.946C201.189 124.85 201.699 126.077 201.7 127.357V160.288C201.699 161.567 201.189 162.794 200.283 163.699C199.377 164.603 198.149 165.112 196.867 165.114H81.1403C79.8589 165.112 78.6305 164.603 77.7245 163.699C76.8185 162.794 76.3088 161.567 76.3074 160.288V127.357C76.3088 126.077 76.8185 124.85 77.7245 123.946C78.6305 123.041 79.8589 122.532 81.1403 122.531H196.867Z" fill="white"/>
<path d="M79.4967 10.0406C77.552 10.0406 75.9756 8.46641 75.9756 6.52461C75.9756 4.58281 77.552 3.00867 79.4967 3.00867C81.4414 3.00867 83.0178 4.58281 83.0178 6.52461C83.0178 8.46641 81.4414 10.0406 79.4967 10.0406Z" fill="white"/>
<path d="M190.324 97.0602C188.38 97.0602 186.803 95.4861 186.803 93.5443C186.803 91.6025 188.38 90.0283 190.324 90.0283C192.269 90.0283 193.846 91.6025 193.846 93.5443C193.846 95.4861 192.269 97.0602 190.324 97.0602Z" fill="#D6D6D6"/>
<path d="M149.831 96.5127H177.296C178.085 96.5127 178.841 96.1999 179.398 95.6433C179.956 95.0866 180.269 94.3316 180.269 93.5443C180.269 92.757 179.956 92.002 179.398 91.4453C178.841 90.8887 178.085 90.5759 177.296 90.5759H149.831C149.043 90.5759 148.287 90.8887 147.729 91.4453C147.172 92.002 146.859 92.757 146.859 93.5443C146.859 94.3316 147.172 95.0866 147.729 95.6433C148.287 96.1999 149.043 96.5127 149.831 96.5127Z" fill="#D6D6D6"/>
<path d="M127.736 97.236C125.792 97.236 124.215 95.6618 124.215 93.72C124.215 91.7782 125.792 90.2041 127.736 90.2041C129.681 90.2041 131.257 91.7782 131.257 93.72C131.257 95.6618 129.681 97.236 127.736 97.236Z" fill="#D6D6D6"/>
<path d="M87.2432 96.6885H114.708C115.497 96.6885 116.253 96.3757 116.81 95.819C117.368 95.2623 117.681 94.5073 117.681 93.72C117.681 92.9328 117.368 92.1777 116.81 91.621C116.253 91.0643 115.497 90.7516 114.708 90.7516H87.2432C86.4548 90.7516 85.6986 91.0643 85.1411 91.621C84.5836 92.1777 84.2704 92.9328 84.2704 93.72C84.2704 94.5073 84.5836 95.2623 85.1411 95.819C85.6986 96.3757 86.4548 96.6885 87.2432 96.6885Z" fill="#D6D6D6"/>
<path d="M77.6632 5.19094L78.1611 4.69373L79.4966 6.02751L80.8323 4.69373L81.3303 5.19094L79.9945 6.52472L81.3303 7.85818L80.8323 8.35539L79.4966 7.02161L78.1611 8.35539L77.6632 7.85818L78.9986 6.52472L77.6632 5.19094Z" fill="#D6D6D6"/>
<path d="M190.324 46.7821C188.38 46.7821 186.803 45.208 186.803 43.2662C186.803 41.3244 188.38 39.7502 190.324 39.7502C192.269 39.7502 193.846 41.3244 193.846 43.2662C193.846 45.208 192.269 46.7821 190.324 46.7821Z" fill="#D6D6D6"/>
<path d="M86.9791 45.8831H170.782C171.57 45.8823 172.325 45.5692 172.882 45.0125C173.439 44.4559 173.752 43.7014 173.752 42.9146C173.752 42.1279 173.439 41.3733 172.882 40.8167C172.325 40.2601 171.57 39.947 170.782 39.9462H86.9791C86.1912 39.947 85.4358 40.2601 84.879 40.8167C84.3221 41.3733 84.0093 42.1279 84.0093 42.9146C84.0093 43.7014 84.3221 44.4559 84.879 45.0125C85.4358 45.5692 86.1912 45.8823 86.9791 45.8831Z" fill="#D6D6D6"/>
<path d="M101.592 45.8831H176.24C177.028 45.8831 177.784 45.5703 178.342 45.0136C178.899 44.4569 179.213 43.7019 179.213 42.9146C179.213 42.1273 178.899 41.3723 178.342 40.8156C177.784 40.2589 177.028 39.9462 176.24 39.9462H101.592C100.804 39.947 100.048 40.2601 99.4916 40.8167C98.9348 41.3733 98.622 42.1279 98.622 42.9146C98.622 43.7014 98.9348 44.4559 99.4916 45.0125C100.048 45.5692 100.804 45.8823 101.592 45.8831Z" fill="#1A59E9"/>
<path d="M190.324 147.338C188.38 147.338 186.803 145.764 186.803 143.822C186.803 141.881 188.38 140.306 190.324 140.306C192.269 140.306 193.846 141.881 193.846 143.822C193.846 145.764 192.269 147.338 190.324 147.338Z" fill="#D6D6D6"/>
<path d="M86.979 146.439H170.782C171.571 146.439 172.327 146.126 172.884 145.57C173.442 145.013 173.755 144.258 173.755 143.471C173.755 142.683 173.442 141.928 172.884 141.372C172.327 140.815 171.571 140.502 170.782 140.502H86.979C86.1906 140.502 85.4345 140.815 84.877 141.372C84.3195 141.928 84.0063 142.683 84.0063 143.471C84.0063 144.258 84.3195 145.013 84.877 145.57C85.4345 146.126 86.1906 146.439 86.979 146.439Z" fill="#D6D6D6"/>
<path d="M131.609 146.439H176.24C177.028 146.439 177.784 146.126 178.342 145.57C178.899 145.013 179.213 144.258 179.213 143.471C179.213 142.683 178.899 141.928 178.342 141.372C177.784 140.815 177.028 140.502 176.24 140.502H131.609C130.821 140.502 130.065 140.815 129.507 141.372C128.95 141.928 128.637 142.683 128.637 143.471C128.637 144.258 128.95 145.013 129.507 145.57C130.065 146.126 130.821 146.439 131.609 146.439Z" fill="#1A59E9"/>
<path d="M172.455 96.5127H177.296C178.085 96.5127 178.841 96.1999 179.398 95.6433C179.956 95.0866 180.269 94.3316 180.269 93.5443C180.269 92.757 179.956 92.002 179.398 91.4453C178.841 90.8887 178.085 90.5759 177.296 90.5759H172.455C171.666 90.5759 170.91 90.8887 170.353 91.4453C169.795 92.002 169.482 92.757 169.482 93.5443C169.482 94.3316 169.795 95.0866 170.353 95.6433C170.91 96.1999 171.666 96.5127 172.455 96.5127Z" fill="#1A59E9"/>
<path d="M99.5672 96.6885H114.708C115.497 96.6885 116.253 96.3757 116.81 95.819C117.368 95.2623 117.681 94.5073 117.681 93.72C117.681 92.9328 117.368 92.1777 116.81 91.621C116.253 91.0643 115.497 90.7516 114.708 90.7516H99.5672C98.7792 90.7524 98.0239 91.0655 97.467 91.6221C96.9102 92.1787 96.5974 92.9333 96.5974 93.72C96.5974 94.5068 96.9102 95.2614 97.467 95.818C98.0239 96.3746 98.7792 96.6877 99.5672 96.6885Z" fill="#1A59E9"/>
<path d="M25.2464 132.262C24.7903 132.217 24.3498 132.071 23.956 131.837C23.5622 131.603 23.2245 131.286 22.9669 130.907C22.7092 130.528 22.5379 130.098 22.4648 129.646C22.3918 129.194 22.4188 128.732 22.5441 128.292L13.4164 121.911L18.7997 119.783L26.6422 126.168C27.369 126.427 27.9753 126.944 28.3463 127.619C28.7173 128.295 28.8272 129.083 28.6551 129.834C28.4831 130.586 28.0411 131.248 27.4128 131.695C26.7845 132.143 26.0137 132.344 25.2464 132.262Z" fill="#A0616A"/>
<path d="M20.9917 127.603C21.188 127.602 21.382 127.561 21.5613 127.481C21.7644 127.393 21.9433 127.257 22.0831 127.086C22.223 126.914 22.3197 126.711 22.3651 126.495L22.9779 123.653C23.0303 123.41 23.0167 123.156 22.9386 122.92C22.8605 122.683 22.7207 122.472 22.5335 122.307L17.1206 117.548L22.4639 106.369C22.8355 105.591 22.8993 104.703 22.6424 103.88C22.3855 103.058 21.8269 102.363 21.0785 101.935C20.3301 101.506 19.4472 101.376 18.6067 101.57C17.7662 101.764 17.0303 102.268 16.5462 102.981L9.70339 113.06C9.19491 113.802 8.84414 114.64 8.67274 115.523C8.50133 116.406 8.51293 117.314 8.7068 118.192C8.92149 119.121 9.32721 119.994 9.8982 120.757C10.4692 121.52 11.193 122.156 12.0235 122.625L20.2896 127.412C20.5026 127.537 20.7449 127.602 20.9917 127.603Z" fill="#D6D6D6"/>
<path d="M51.3188 121.527C50.9375 121.781 50.5052 121.949 50.0521 122.018C49.599 122.087 49.1362 122.056 48.6963 121.928C48.2564 121.799 47.8501 121.576 47.5061 121.273C47.162 120.971 46.8885 120.597 46.7049 120.177L35.5968 121.046L38.3973 115.986L48.5164 115.937C49.2424 115.675 50.0392 115.689 50.7557 115.975C51.4723 116.261 52.0589 116.8 52.4043 117.489C52.7497 118.178 52.83 118.97 52.6299 119.714C52.4299 120.458 51.9633 121.103 51.3188 121.527Z" fill="#A0616A"/>
<path d="M24.7546 95.0311C20.5251 95.0311 17.0965 91.6075 17.0965 87.3843C17.0965 83.161 20.5251 79.7374 24.7546 79.7374C28.9841 79.7374 32.4127 83.161 32.4127 87.3843C32.4127 91.6075 28.9841 95.0311 24.7546 95.0311Z" fill="#A0616A"/>
<path d="M47.303 191.993L50.9666 190.905L48.5056 176.276L43.098 177.882L47.303 191.993Z" fill="#A0616A"/>
<path d="M47.4251 195.817L59.2389 192.308L59.1944 192.158C59.0148 191.555 58.718 190.994 58.3209 190.505C57.9238 190.017 57.4343 189.611 56.8803 189.312C56.3263 189.012 55.7186 188.825 55.092 188.76C54.4653 188.695 53.832 188.753 53.2281 188.933L53.2278 188.933L46.0124 191.077L47.4251 195.817Z" fill="#0A1B43"/>
<path d="M7.16219 191.806L10.9849 191.806L12.8033 177.083L9.03236 177.084L7.16219 191.806Z" fill="#A0616A"/>
<path d="M6.18744 195.506L18.513 195.506V195.35C18.513 194.721 18.389 194.098 18.1479 193.517C17.9068 192.936 17.5534 192.407 17.1079 191.963C16.6624 191.518 16.1335 191.165 15.5515 190.924C14.9694 190.683 14.3456 190.56 13.7155 190.56L6.18721 190.56L6.18744 195.506Z" fill="#0A1B43"/>
<path d="M45.8934 187.665H49.7315C49.9372 187.665 50.1405 187.62 50.3267 187.533C50.513 187.445 50.6778 187.318 50.8095 187.161C50.9412 187.003 51.0365 186.818 51.0887 186.619C51.1408 186.421 51.1486 186.213 51.1115 186.011L45.7357 156.786C45.7409 135.495 37.3516 123.163 37.2668 123.04L37.1644 122.893L21.4849 124.171L5.85661 185.674C5.80545 185.875 5.79974 186.085 5.83984 186.289C5.87995 186.493 5.96489 186.685 6.08852 186.852C6.21215 187.019 6.37138 187.156 6.5547 187.254C6.73801 187.352 6.94083 187.408 7.14849 187.418L11.4609 187.627C11.7527 187.642 12.042 187.565 12.2879 187.408C12.5339 187.25 12.724 187.019 12.8317 186.748L29.3536 145.505C29.3864 145.415 29.4473 145.338 29.5275 145.285C29.6076 145.232 29.7027 145.206 29.7986 145.212C29.8942 145.213 29.9871 145.243 30.0644 145.3C30.1417 145.356 30.1994 145.435 30.2296 145.525L44.568 186.724C44.6639 186.999 44.8429 187.237 45.0804 187.406C45.3179 187.574 45.602 187.665 45.8934 187.665Z" fill="#0A1B43"/>
<path d="M21.1565 125.406L21.2764 125.397L37.9703 124.139L35.0421 105.543C34.7207 103.467 33.7358 101.55 32.2342 100.079C30.7326 98.6085 28.7949 97.6618 26.7102 97.3808C26.582 97.3628 26.4529 97.3453 26.3229 97.3282C24.6852 97.113 23.0196 97.3219 21.4861 97.9347C19.9525 98.5475 18.6025 99.5438 17.5657 100.828C16.5042 102.119 15.7931 103.661 15.5007 105.306C15.2083 106.951 15.3445 108.643 15.8962 110.221L21.1565 125.406Z" fill="#D6D6D6"/>
<path d="M29.6486 120.549C30.3262 121.093 31.1045 121.497 31.939 121.739C32.7734 121.982 33.6476 122.057 34.5113 121.961L44.173 120.923C44.3939 120.899 44.6059 120.823 44.7917 120.702C44.9775 120.58 45.1318 120.416 45.2418 120.224C45.3518 120.031 45.4145 119.815 45.4245 119.593C45.4346 119.372 45.3919 119.151 45.2998 118.949L44.0114 116.125C43.9065 115.895 43.7412 115.697 43.5329 115.553C43.3246 115.409 43.0812 115.324 42.8285 115.308L35.7863 114.836L33.4744 102.669C33.3252 101.888 32.9081 101.183 32.2948 100.676C31.6814 100.169 30.9103 99.8908 30.114 99.89C29.6329 99.8879 29.1569 99.9881 28.7176 100.184C28.2784 100.38 27.886 100.667 27.5666 101.027C26.9613 101.718 26.6504 102.619 26.7 103.536L27.1478 115.6C27.1777 116.512 27.3972 117.408 27.7925 118.231C28.1878 119.054 28.7503 119.786 29.4441 120.38C29.5113 120.438 29.5795 120.494 29.6486 120.549Z" fill="#D6D6D6"/>
<path d="M30.578 85.4744C31.5316 85.8437 32.5363 86.0645 33.5571 86.129C34.5838 86.1418 35.6751 85.7866 36.237 85.0059C36.4525 84.6648 36.5917 84.2813 36.6449 83.8815C36.6981 83.4817 36.6641 83.0752 36.5453 82.6898C36.3326 81.9084 35.9497 81.1835 35.4241 80.5669C34.8985 79.9503 34.243 79.4572 33.5045 79.1227C32.7285 78.7712 31.8906 78.5762 31.0389 78.5488C30.1872 78.5215 29.3385 78.6623 28.5415 78.9632C27.9653 77.2142 25.7951 76.2623 23.7864 76.2085C19.6832 76.0985 16.0144 78.8922 14.2316 82.2515C12.4489 85.6107 12.1884 89.4506 12.0776 93.1785C12.0506 94.0877 12.0392 95.0357 12.4705 95.8565C13.1128 97.0787 14.5722 97.737 15.9479 98.2589C19.5552 99.6255 23.2768 100.67 27.0689 101.38C25.2481 100.218 24.6706 97.7171 25.8239 95.9882C26.3881 95.1424 27.3146 94.4382 27.4646 93.4585C27.6443 92.2839 26.6406 91.2566 26.2693 90.1196C26.0817 89.5041 26.0732 88.848 26.2449 88.2278C26.4165 87.6077 26.7612 87.049 27.2387 86.6171C27.7586 86.1662 28.38 85.8478 29.05 85.6892C29.72 85.5305 30.4184 85.5364 31.0856 85.7062" fill="#0A1B43"/>
<path d="M0.914383 196H65.4569C65.5396 196 65.6189 195.967 65.6774 195.909C65.7358 195.85 65.7687 195.771 65.7687 195.689C65.7687 195.606 65.7358 195.527 65.6774 195.469C65.6189 195.41 65.5396 195.377 65.4569 195.377H0.914383C0.831688 195.377 0.752388 195.41 0.693909 195.469C0.635437 195.527 0.602585 195.606 0.602585 195.689C0.602585 195.771 0.635437 195.85 0.693909 195.909C0.752388 195.967 0.831688 196 0.914383 196Z" fill="#D6D6D6"/>
</g>
<defs>
<clipPath id="clip0_35_572">
<rect width="204.795" height="196" fill="white" transform="matrix(-1 0 0 1 205.397 0)"/>
</clipPath>
</defs>
</svg>
