<svg width="239" height="196" viewBox="0 0 239 196" fill="none" xmlns="http://www.w3.org/2000/svg">
<g clip-path="url(#clip0_35_490)">
<path d="M147.299 181.353C150.749 183.685 154.68 195.475 154.68 195.475C154.68 195.475 142.374 196.284 138.925 193.953C138.104 193.399 137.4 192.687 136.852 191.858C136.305 191.029 135.924 190.099 135.733 189.122C135.541 188.144 135.542 187.139 135.736 186.162C135.931 185.185 136.313 184.256 136.863 183.429C137.413 182.601 138.12 181.891 138.942 181.339C139.764 180.787 140.686 180.403 141.655 180.21C142.624 180.018 143.621 180.019 144.59 180.216C145.558 180.412 146.479 180.798 147.299 181.353Z" fill="#215ADE"/>
<path d="M151.49 195.386L151.298 195.541C144.266 186.643 133.654 183.57 133.548 183.54L133.614 183.301C133.721 183.331 144.407 186.424 151.49 195.386Z" fill="white"/>
<path d="M165.751 176.65C165.531 182.444 154.611 195.674 154.611 195.674C154.611 195.674 144.733 181.636 144.952 175.844C145.058 173.062 146.255 170.437 148.28 168.545C150.306 166.654 152.993 165.651 155.751 165.758C158.509 165.865 161.112 167.072 162.987 169.115C164.863 171.157 165.857 173.868 165.751 176.65Z" fill="#215ADE"/>
<path d="M151.487 195.776L151.166 195.66C156.456 180.843 152.343 166 152.301 165.851L152.629 165.756C152.672 165.906 156.816 180.852 151.487 195.776Z" fill="white"/>
<path d="M123.212 143.684H29.6253C27.958 143.682 26.3595 143.013 25.1805 141.824C24.0016 140.635 23.3384 139.022 23.3365 137.341V29.4662C23.3384 27.7844 24.0016 26.1722 25.1805 24.983C26.3595 23.7939 27.958 23.125 29.6253 23.123H123.212C124.879 23.1249 126.478 23.7938 127.657 24.983C128.836 26.1721 129.499 27.7844 129.501 29.4662V137.341C129.499 139.022 128.836 140.635 127.657 141.824C126.478 143.013 124.879 143.682 123.212 143.684Z" fill="#E6E6E6"/>
<path d="M118.839 138.397H33.9984C32.518 138.396 31.0987 137.802 30.0519 136.746C29.0051 135.69 28.4163 134.258 28.4146 132.765V34.0418C28.4163 32.5486 29.0051 31.1171 30.0519 30.0612C31.0987 29.0054 32.518 28.4115 33.9984 28.4098H118.839C120.319 28.4115 121.739 29.0054 122.786 30.0612C123.832 31.1171 124.421 32.5486 124.423 34.0418V132.765C124.421 134.258 123.832 135.69 122.786 136.746C121.739 137.802 120.319 138.396 118.839 138.397Z" fill="white"/>
<path d="M115.464 42.4608H72.6643C72.4808 42.4611 72.2991 42.4248 72.1295 42.3542C71.9599 42.2836 71.8058 42.1799 71.676 42.0492C71.5461 41.9184 71.4431 41.7631 71.3729 41.5922C71.3026 41.4212 71.2664 41.238 71.2664 41.0529C71.2664 40.8679 71.3026 40.6846 71.3729 40.5137C71.4431 40.3427 71.5461 40.1874 71.676 40.0567C71.8058 39.9259 71.9599 39.8222 72.1295 39.7516C72.2991 39.681 72.4808 39.6448 72.6643 39.645H115.464C115.647 39.6448 115.829 39.681 115.999 39.7516C116.168 39.8222 116.322 39.9259 116.452 40.0567C116.582 40.1874 116.685 40.3427 116.755 40.5137C116.826 40.6846 116.862 40.8679 116.862 41.0529C116.862 41.238 116.826 41.4212 116.755 41.5922C116.685 41.7631 116.582 41.9184 116.452 42.0492C116.322 42.1799 116.168 42.2836 115.999 42.3542C115.829 42.4248 115.647 42.4611 115.464 42.4608Z" fill="#D6D6D6"/>
<path d="M115.464 48.0242H72.6643C72.294 48.0242 71.939 47.8758 71.6772 47.6118C71.4154 47.3477 71.2684 46.9896 71.2684 46.6162C71.2684 46.2428 71.4154 45.8847 71.6772 45.6206C71.939 45.3566 72.294 45.2083 72.6643 45.2083H115.464C115.834 45.2083 116.189 45.3566 116.451 45.6206C116.713 45.8847 116.86 46.2428 116.86 46.6162C116.86 46.9896 116.713 47.3477 116.451 47.6118C116.189 47.8758 115.834 48.0242 115.464 48.0242Z" fill="#D6D6D6"/>
<path d="M91.2169 53.5874H72.6643C72.294 53.5874 71.939 53.4391 71.6772 53.175C71.4154 52.911 71.2683 52.5529 71.2683 52.1794C71.2683 51.806 71.4154 51.4479 71.6772 51.1839C71.939 50.9198 72.294 50.7715 72.6643 50.7715H91.2169C91.5871 50.7715 91.9421 50.9198 92.2039 51.1839C92.4657 51.4479 92.6128 51.806 92.6128 52.1794C92.6128 52.5529 92.4657 52.911 92.2039 53.175C91.9421 53.4391 91.5871 53.5874 91.2169 53.5874Z" fill="#D6D6D6"/>
<path d="M110.303 76.0567H42.7354C42.552 76.057 42.3702 76.0208 42.2006 75.9502C42.0311 75.8795 41.877 75.7759 41.7471 75.6451C41.6173 75.5143 41.5143 75.359 41.444 75.1881C41.3738 75.0171 41.3376 74.8339 41.3376 74.6489C41.3376 74.4638 41.3738 74.2806 41.444 74.1096C41.5143 73.9387 41.6173 73.7834 41.7471 73.6526C41.877 73.5219 42.0311 73.4182 42.2006 73.3476C42.3702 73.2769 42.552 73.2407 42.7354 73.241H110.303C110.486 73.2407 110.668 73.2769 110.838 73.3476C111.007 73.4182 111.161 73.5219 111.291 73.6526C111.421 73.7834 111.524 73.9387 111.594 74.1096C111.664 74.2806 111.701 74.4638 111.701 74.6489C111.701 74.8339 111.664 75.0171 111.594 75.1881C111.524 75.359 111.421 75.5143 111.291 75.6451C111.161 75.7759 111.007 75.8795 110.838 75.9502C110.668 76.0208 110.486 76.057 110.303 76.0567Z" fill="#D6D6D6"/>
<path d="M110.303 81.62H42.7354C42.3652 81.62 42.0102 81.4717 41.7484 81.2076C41.4866 80.9436 41.3395 80.5855 41.3395 80.212C41.3395 79.8386 41.4866 79.4805 41.7484 79.2165C42.0102 78.9524 42.3652 78.8041 42.7354 78.8041H110.303C110.673 78.8041 111.028 78.9524 111.29 79.2165C111.552 79.4805 111.699 79.8386 111.699 80.212C111.699 80.5855 111.552 80.9436 111.29 81.2076C111.028 81.4717 110.673 81.62 110.303 81.62Z" fill="#D6D6D6"/>
<path d="M110.303 94.2484H42.7354C42.3652 94.2484 42.0102 94.1001 41.7484 93.836C41.4866 93.572 41.3396 93.2139 41.3396 92.8405C41.3396 92.4671 41.4866 92.109 41.7484 91.845C42.0102 91.581 42.3652 91.4326 42.7354 91.4326H110.303C110.673 91.4326 111.028 91.581 111.29 91.845C111.552 92.109 111.699 92.4671 111.699 92.8405C111.699 93.2139 111.552 93.572 111.29 93.836C111.028 94.1001 110.673 94.2484 110.303 94.2484Z" fill="#D6D6D6"/>
<path d="M110.303 99.8116H42.7354C42.3652 99.8116 42.0102 99.6633 41.7484 99.3993C41.4866 99.1352 41.3395 98.7771 41.3395 98.4037C41.3395 98.0303 41.4866 97.6721 41.7484 97.4081C42.0102 97.1441 42.3652 96.9957 42.7354 96.9957H110.303C110.673 96.9957 111.028 97.1441 111.29 97.4081C111.552 97.6721 111.699 98.0303 111.699 98.4037C111.699 98.7771 111.552 99.1352 111.29 99.3993C111.028 99.6633 110.673 99.8116 110.303 99.8116Z" fill="#D6D6D6"/>
<path d="M110.303 112.44H42.7354C42.3652 112.44 42.0102 112.292 41.7484 112.028C41.4866 111.764 41.3396 111.406 41.3396 111.032C41.3396 110.659 41.4866 110.301 41.7484 110.037C42.0102 109.773 42.3652 109.624 42.7354 109.624H110.303C110.673 109.624 111.028 109.773 111.29 110.037C111.552 110.301 111.699 110.659 111.699 111.032C111.699 111.406 111.552 111.764 111.29 112.028C111.028 112.292 110.673 112.44 110.303 112.44Z" fill="#D6D6D6"/>
<path d="M110.303 118.003H42.7354C42.3652 118.003 42.0102 117.855 41.7484 117.591C41.4866 117.327 41.3395 116.969 41.3395 116.595C41.3395 116.222 41.4866 115.864 41.7484 115.6C42.0102 115.336 42.3652 115.187 42.7354 115.187H110.303C110.673 115.187 111.028 115.336 111.29 115.6C111.552 115.864 111.699 116.222 111.699 116.595C111.699 116.969 111.552 117.327 111.29 117.591C111.028 117.855 110.673 118.003 110.303 118.003Z" fill="#D6D6D6"/>
<path d="M110.291 133.413H91.7382C91.368 133.413 91.013 133.265 90.7512 133.001C90.4894 132.737 90.3423 132.379 90.3423 132.005C90.3423 131.632 90.4894 131.274 90.7512 131.01C91.013 130.746 91.368 130.598 91.7382 130.598H110.291C110.661 130.598 111.016 130.746 111.278 131.01C111.54 131.274 111.687 131.632 111.687 132.005C111.687 132.379 111.54 132.737 111.278 133.001C111.016 133.265 110.661 133.413 110.291 133.413Z" fill="#215ADE"/>
<path d="M60.8166 46.781C60.8204 49.8046 59.8056 52.7398 57.9384 55.1053C57.3345 55.8752 56.647 56.5745 55.8886 57.19C53.8192 58.8832 51.2907 59.9061 48.6348 60.1246C48.2733 60.1562 47.9088 60.1705 47.5415 60.1705C46.8138 60.1707 46.0873 60.1102 45.3694 59.9897C45.1161 59.9495 44.8684 59.9006 44.6207 59.8432C44.1896 59.7464 43.7639 59.6266 43.3453 59.4843C41.988 59.0286 40.7131 58.3537 39.5703 57.4858C39.2658 57.256 38.9726 57.012 38.6879 56.7535C38.3397 56.442 38.0099 56.1103 37.7 55.76C37.6174 55.6681 37.5348 55.5734 37.4552 55.4786C36.0661 53.8388 35.0904 51.8847 34.6113 49.7826C34.1321 47.6806 34.1637 45.4929 34.7033 43.4058C35.2428 41.3187 36.2744 39.394 37.7102 37.7956C39.146 36.1972 40.9435 34.9724 42.9496 34.2255C44.9557 33.4786 47.111 33.2318 49.2321 33.5059C51.3532 33.7801 53.3772 34.5671 55.1317 35.8001C56.8863 37.0331 58.3195 38.6755 59.3093 40.5874C60.2991 42.4993 60.8162 44.6241 60.8166 46.781Z" fill="#D6D6D6"/>
<path d="M47.0795 51.3506C50.084 51.3506 52.5196 48.894 52.5196 45.8636C52.5196 42.8332 50.084 40.3766 47.0795 40.3766C44.0751 40.3766 41.6395 42.8332 41.6395 45.8636C41.6395 48.894 44.0751 51.3506 47.0795 51.3506Z" fill="#9E616A"/>
<path d="M53.1357 43.1889C53.1604 42.6986 53.0232 42.2139 52.7457 41.8106L52.5493 41.5292C51.8403 40.1509 50.6703 38.9104 49.8135 38.003C49.17 37.3225 48.5267 36.9952 47.9088 37.0267C47.4592 37.0591 47.0406 37.2697 46.7445 37.6125C45.9309 37.5624 45.1205 37.7528 44.4125 38.1603C43.7046 38.5678 43.1299 39.1748 42.7589 39.9068C40.154 41.2937 40.9312 45.3884 40.9397 45.4314L41.569 46.4968L41.6402 46.3618C41.6402 46.3589 41.6486 46.3474 41.66 46.3245C41.7825 46.1034 42.4486 44.8744 42.8984 44.0962C43.0626 43.8308 43.281 43.6037 43.539 43.4301C43.9603 43.1397 44.4445 42.9556 44.951 42.8931L46.3346 42.7122L45.8108 43.5047H49.58L51.029 43.3324C51.1742 43.9326 52.3244 46.2613 52.4638 46.5427L52.4752 46.5657L52.552 46.7236L52.982 45.532C53.233 44.7774 53.286 43.9702 53.1357 43.1889Z" fill="#0A1B43"/>
<path d="M39.6103 57.5145C39.8437 57.2043 41.0536 55.7571 43.8379 54.9905L45.3125 53.3336L51.2255 52.3832L54.2346 54.0601L57.9384 55.1053C57.3345 55.8753 56.6469 56.5745 55.8886 57.19C53.8192 58.8832 51.2907 59.9061 48.6348 60.1246C48.2733 60.1562 47.9089 60.1705 47.5416 60.1705C46.8139 60.1707 46.0873 60.1102 45.3695 59.9896C45.1161 59.9494 44.8684 59.9006 44.6207 59.8432C44.1896 59.7464 43.7639 59.6266 43.3453 59.4843C42.0034 59.0345 40.7422 58.3694 39.6103 57.5145C39.596 57.5058 39.5846 57.4943 39.5704 57.4857L39.6103 57.5145Z" fill="#215ADE"/>
<path d="M151.824 6.71591H1.01374C0.789778 6.71567 0.575059 6.62582 0.416693 6.46609C0.258327 6.30635 0.169249 6.08978 0.169004 5.86388V0.852027C0.169249 0.626131 0.258327 0.409558 0.416693 0.249825C0.575059 0.0900919 0.789778 0.000246258 1.01374 0H151.824C152.048 0.000246258 152.262 0.0900919 152.421 0.249825C152.579 0.409558 152.668 0.626131 152.668 0.852027V5.86388C152.668 6.08978 152.579 6.30635 152.421 6.46609C152.262 6.62582 152.048 6.71567 151.824 6.71591Z" fill="#215ADE"/>
<path d="M5.07136 4.32314C5.73372 4.32314 6.27067 3.78155 6.27067 3.11347C6.27067 2.44539 5.73372 1.90381 5.07136 1.90381C4.409 1.90381 3.87205 2.44539 3.87205 3.11347C3.87205 3.78155 4.409 4.32314 5.07136 4.32314Z" fill="white"/>
<path d="M9.62355 4.32314C10.2859 4.32314 10.8229 3.78155 10.8229 3.11347C10.8229 2.44539 10.2859 1.90381 9.62355 1.90381C8.96119 1.90381 8.42424 2.44539 8.42424 3.11347C8.42424 3.78155 8.96119 4.32314 9.62355 4.32314Z" fill="white"/>
<path d="M14.176 4.32314C14.8383 4.32314 15.3753 3.78155 15.3753 3.11347C15.3753 2.44539 14.8383 1.90381 14.176 1.90381C13.5136 1.90381 12.9767 2.44539 12.9767 3.11347C12.9767 3.78155 13.5136 4.32314 14.176 4.32314Z" fill="white"/>
<path d="M147.364 2.28087H142.122C142.019 2.27999 141.921 2.23834 141.849 2.16498C141.777 2.09163 141.737 1.99252 141.737 1.88922C141.737 1.78593 141.777 1.68682 141.849 1.61346C141.921 1.54011 142.019 1.49846 142.122 1.49757H147.364C147.415 1.49713 147.466 1.50693 147.513 1.52642C147.561 1.5459 147.604 1.57468 147.64 1.61109C147.677 1.6475 147.706 1.69083 147.725 1.73856C147.745 1.7863 147.755 1.83751 147.755 1.88922C147.755 1.94094 147.745 1.99214 147.725 2.03988C147.706 2.08762 147.677 2.13094 147.64 2.16736C147.604 2.20377 147.561 2.23255 147.513 2.25203C147.466 2.27151 147.415 2.28132 147.364 2.28087Z" fill="white"/>
<path d="M147.364 3.74962H142.122C142.019 3.74962 141.92 3.70836 141.847 3.63491C141.774 3.56146 141.733 3.46184 141.733 3.35797C141.733 3.2541 141.774 3.15448 141.847 3.08103C141.92 3.00759 142.019 2.96632 142.122 2.96632H147.364C147.415 2.96588 147.466 2.97568 147.513 2.99517C147.561 3.01465 147.604 3.04343 147.64 3.07984C147.677 3.11625 147.706 3.15958 147.725 3.20731C147.745 3.25505 147.755 3.30626 147.755 3.35797C147.755 3.40969 147.745 3.46089 147.725 3.50863C147.706 3.55637 147.677 3.59969 147.64 3.63611C147.604 3.67252 147.561 3.7013 147.513 3.72078C147.466 3.74026 147.415 3.75007 147.364 3.74962Z" fill="white"/>
<path d="M147.364 5.21824H142.122C142.019 5.2174 141.921 5.17577 141.849 5.10241C141.777 5.02905 141.736 4.92991 141.736 4.82659C141.736 4.72326 141.777 4.62413 141.849 4.55077C141.921 4.47741 142.019 4.43578 142.122 4.43494H147.364C147.466 4.43578 147.564 4.47741 147.636 4.55077C147.708 4.62413 147.749 4.72326 147.749 4.82659C147.749 4.92991 147.708 5.02905 147.636 5.10241C147.564 5.17577 147.466 5.2174 147.364 5.21824Z" fill="white"/>
<path d="M188.767 134.777C188.526 134.513 188.345 134.198 188.237 133.855C188.13 133.512 188.098 133.149 188.144 132.793C188.191 132.436 188.314 132.094 188.506 131.791C188.697 131.488 188.952 131.231 189.253 131.038L187.255 122.532L191.485 124.091L192.734 131.929C193.022 132.46 193.107 133.079 192.973 133.669C192.838 134.259 192.494 134.779 192.005 135.13C191.516 135.481 190.916 135.639 190.319 135.574C189.723 135.509 189.17 135.226 188.767 134.777Z" fill="#9E616A"/>
<path d="M178.595 99.1349L180.292 103.538C180.292 103.538 179.565 107.941 180.777 108.919C181.99 109.898 181.505 109.898 181.505 110.632C181.547 111.158 181.698 111.67 181.949 112.133C182.199 112.597 182.544 113.002 182.96 113.322C183.93 114.056 188.295 128.977 188.295 128.977H192.661C192.52 127.84 192.52 126.69 192.661 125.553C192.903 123.841 191.933 119.438 191.448 118.704C190.963 117.97 191.448 116.991 191.448 115.524C191.448 114.056 190.478 113.322 190.478 110.876C190.478 108.43 187.568 89.3505 187.81 87.149C188.053 84.9475 185.385 82.9906 185.385 82.9906H182.96L178.595 99.1349Z" fill="#D6D6D6"/>
<path d="M189.759 192.163H186.532L184.998 179.612L189.759 179.612L189.759 192.163Z" fill="#9E616A"/>
<path d="M190.581 195.318L180.179 195.317V195.185C180.179 194.101 180.605 193.063 181.365 192.297C182.124 191.531 183.154 191.101 184.228 191.101L186.128 189.647L189.674 191.101L190.582 191.101L190.581 195.318Z" fill="#0A1B43"/>
<path d="M164.385 192.977L161.355 191.859L162.348 179.437L166.82 181.087L164.385 192.977Z" fill="#9E616A"/>
<path d="M165.565 195.57L155.152 195.667L155.15 195.535C155.134 194.453 155.546 193.411 156.294 192.639C157.043 191.867 158.068 191.427 159.142 191.417L161.023 189.947L164.594 191.367L165.503 191.358L165.565 195.57Z" fill="#0A1B43"/>
<path d="M182.651 133.471C182.651 133.471 180.468 144.234 184.106 143.255C187.744 142.277 186.288 132.982 186.288 132.982L182.651 133.471Z" fill="#A0616A"/>
<path d="M166.645 124.543C166.645 124.543 163.734 128.456 163.734 130.658C163.734 132.859 162.764 152.428 162.764 152.428C162.764 152.428 158.606 182.209 160.061 183.676C161.516 185.144 166.609 186.612 167.336 185.878C168.064 185.144 171.252 154.385 171.252 154.385L177.315 137.996L182.893 161.479L183.378 186.429C183.378 186.429 189.441 187.897 190.654 186.918C191.866 185.94 192.109 162.213 190.654 153.896C189.199 145.579 190.896 126.499 190.896 126.499L166.645 124.543Z" fill="#0A1B43"/>
<path d="M176.37 72.3183C180.388 72.3183 183.646 69.0329 183.646 64.98C183.646 60.9272 180.388 57.6417 176.37 57.6417C172.352 57.6417 169.095 60.9272 169.095 64.98C169.095 69.0329 172.352 72.3183 176.37 72.3183Z" fill="#9E616A"/>
<path d="M167.13 82.9588C167.13 82.9588 169.224 79.8106 173.347 75.6522C175.53 74.9184 179.312 75.3461 180.623 75.6522C186.686 83.7244 187.067 83.188 188.645 87.6982C189.055 88.8677 189.259 89.9914 189.077 90.9087C188.35 94.5778 190.654 124.298 190.896 125.276C191.139 126.255 192.836 127.478 191.139 127.478C189.441 127.478 163.734 126.499 164.219 125.766C164.704 125.032 167.13 82.9588 167.13 82.9588Z" fill="#D6D6D6"/>
<path opacity="0.1" d="M166.019 125.443L173.314 109.254L169.667 126.471L166.019 125.443Z" fill="#0A1B43"/>
<path d="M174.169 71.7784C174.85 71.2671 175.478 70.6865 176.041 70.0457C176.607 69.3992 176.961 68.5925 177.055 67.7356C177.096 67.3083 177.03 66.8775 176.862 66.4831C176.693 66.0888 176.429 65.7438 176.093 65.4802C175.4 64.9864 174.343 65.0152 173.768 65.6443C174.046 64.7382 174.3 63.6696 173.737 62.9098C173.225 62.2184 172.269 62.1009 171.444 61.8729C169.852 61.426 168.483 60.3969 167.602 58.9864L169.004 59.279L168.848 58.2712L170.009 58.6785L170.019 57.2748L171.218 57.9513C172.686 56.5943 174.62 55.8674 176.61 55.9251C177.614 55.9419 178.597 56.2142 179.469 56.7167C180.343 57.2263 181.004 58.0371 181.332 58.9998C181.949 58.3538 183.049 58.4038 183.784 58.9086C184.519 59.4135 184.951 60.2581 185.247 61.1038C185.835 62.7256 185.971 64.4784 185.643 66.1728C185.304 67.8712 184.397 69.4005 183.073 70.504C181.857 71.4401 180.409 72.0209 178.888 72.1831C177.373 72.3415 175.843 72.2755 174.347 71.9872" fill="#0A1B43"/>
<path d="M163.748 134.746C163.989 134.481 164.17 134.166 164.277 133.823C164.385 133.48 164.417 133.118 164.37 132.761C164.324 132.405 164.201 132.063 164.009 131.759C163.818 131.456 163.562 131.199 163.262 131.006L165.26 122.5L161.03 124.059L159.781 131.897C159.493 132.428 159.408 133.048 159.542 133.638C159.677 134.228 160.021 134.748 160.51 135.099C160.999 135.45 161.599 135.608 162.195 135.543C162.792 135.478 163.345 135.194 163.748 134.746Z" fill="#9E616A"/>
<path d="M169.555 82.9589H167.13C167.13 82.9589 164.462 84.9157 164.704 87.1172C164.947 89.3187 162.037 108.398 162.037 110.844C162.037 113.291 161.067 114.024 161.067 115.492C161.067 116.96 161.552 117.938 161.067 118.672C160.582 119.406 159.612 123.809 159.854 125.521C159.995 126.658 159.995 127.809 159.854 128.946H164.219C164.219 128.946 168.585 114.024 169.555 113.291C169.971 112.97 170.316 112.565 170.566 112.101C170.817 111.638 170.968 111.126 171.01 110.6C171.01 109.866 170.525 109.866 171.737 108.888C172.95 107.909 172.223 103.506 172.223 103.506L173.92 99.1031L169.555 82.9589Z" fill="#D6D6D6"/>
<path d="M238.159 196H105.127C105.082 196 105.038 195.991 104.997 195.974C104.955 195.957 104.918 195.932 104.886 195.9C104.855 195.868 104.83 195.831 104.813 195.789C104.795 195.748 104.787 195.703 104.787 195.658C104.787 195.613 104.795 195.569 104.813 195.527C104.83 195.485 104.855 195.448 104.886 195.416C104.918 195.384 104.955 195.359 104.997 195.342C105.038 195.325 105.082 195.316 105.127 195.316H238.159C238.203 195.316 238.247 195.325 238.289 195.342C238.33 195.359 238.367 195.384 238.399 195.416C238.431 195.448 238.456 195.485 238.473 195.527C238.49 195.569 238.499 195.613 238.499 195.658C238.499 195.703 238.49 195.748 238.473 195.789C238.456 195.831 238.431 195.868 238.399 195.9C238.367 195.932 238.33 195.957 238.289 195.974C238.247 195.991 238.203 196 238.159 196Z" fill="#CACACA"/>
</g>
<defs>
<clipPath id="clip0_35_490">
<rect width="238.329" height="196" fill="white" transform="translate(0.169006)"/>
</clipPath>
</defs>
</svg>
