<svg width="491" height="454" viewBox="0 0 491 454" fill="none" xmlns="http://www.w3.org/2000/svg">
<rect width="308" height="375" fill="#1A59E9" fill-opacity="0.1"/>
<rect x="199" y="164" width="292" height="290" fill="#8632DA" fill-opacity="0.1"/>
<g clip-path="url(#clip0_35_279)">
<path d="M197.647 315.678H39.5093C37.5184 315.676 35.6097 314.884 34.2019 313.476C32.7941 312.067 32.0022 310.158 32 308.167V93.4195C32.0022 91.428 32.7941 89.5186 34.2019 88.1104C35.6097 86.7022 37.5184 85.91 39.5093 85.9078H197.647C199.638 85.91 201.546 86.7022 202.954 88.1104C204.362 89.5186 205.154 91.428 205.156 93.4195V308.167C205.154 310.158 204.362 312.067 202.954 313.476C201.546 314.884 199.638 315.676 197.647 315.678Z" fill="white"/>
<path d="M111.449 141.796C111.449 147.998 109.488 154.042 105.846 159.061C102.204 164.08 97.0675 167.818 91.1725 169.74C90.9963 169.796 90.8201 169.852 90.6411 169.905C89.8775 170.14 89.1032 170.341 88.3155 170.512C86.89 170.821 85.4431 171.022 83.9873 171.113C83.3545 171.155 82.7182 171.177 82.0782 171.177C78.7715 171.18 75.4881 170.624 72.367 169.532C72.2762 169.499 72.1855 169.467 72.0973 169.435C67.0404 167.608 62.5817 164.428 59.2072 160.241C55.8326 156.054 53.6717 151.02 52.9599 145.689C52.248 140.358 53.0126 134.934 55.1702 130.008C57.3278 125.081 60.7957 120.842 65.1961 117.751C69.5964 114.661 74.7603 112.838 80.1251 112.481C85.4899 112.123 90.8498 113.246 95.6206 115.726C100.392 118.206 104.39 121.949 107.181 126.546C109.973 131.143 111.449 136.418 111.449 141.796Z" fill="white"/>
<path d="M81.3745 161.262C89.2667 161.262 95.6646 154.862 95.6646 146.967C95.6646 139.073 89.2667 132.673 81.3745 132.673C73.4822 132.673 67.0843 139.073 67.0843 146.967C67.0843 154.862 73.4822 161.262 81.3745 161.262Z" fill="#1A59E9"/>
<path d="M82.2087 154.669L82.2236 154.135C81.2301 154.107 80.3542 154.045 79.6961 153.564C79.5095 153.42 79.3561 153.237 79.2464 153.029C79.1367 152.82 79.0732 152.59 79.0602 152.355C79.0487 152.211 79.0704 152.066 79.1238 151.932C79.1772 151.798 79.2608 151.678 79.368 151.582C79.6167 151.431 79.9014 151.35 80.1922 151.347C80.4829 151.345 80.769 151.421 81.0203 151.567L81.4621 151.77L80.6148 145.576L80.0858 145.648L80.8065 150.917C80.5115 150.807 80.1938 150.774 79.8823 150.818C79.5708 150.863 79.2755 150.985 79.0234 151.174C78.8537 151.322 78.7206 151.507 78.6344 151.715C78.5482 151.923 78.5113 152.149 78.5266 152.373C78.5422 152.69 78.6268 152.999 78.7744 153.279C78.922 153.559 79.1291 153.804 79.3811 153.996C80.2267 154.614 81.3257 154.644 82.2087 154.669Z" fill="#030916"/>
<path d="M77.4693 146.102H74.5932V146.637H77.4693V146.102Z" fill="#030916"/>
<path d="M86.5476 146.102H83.6715V146.637H86.5476V146.102Z" fill="#030916"/>
<path d="M85.4344 166.951C85.4723 166.776 85.492 166.597 85.4932 166.417C85.4921 165.745 85.2246 165.1 84.7491 164.624C84.2736 164.149 83.629 163.881 82.9566 163.88H79.2185C78.5459 163.88 77.9011 164.148 77.4255 164.624C76.9499 165.099 76.6825 165.744 76.6819 166.417C76.6817 166.598 76.7014 166.778 76.7405 166.954C75.3294 167.399 73.9955 168.059 72.7862 168.912C72.5511 169.075 72.3189 169.251 72.0973 169.435C72.1854 169.467 72.2762 169.499 72.3669 169.531C75.4881 170.624 78.7715 171.18 82.0781 171.177C82.7189 171.177 83.3553 171.155 83.9872 171.113C85.4431 171.022 86.8899 170.821 88.3154 170.512C89.1032 170.341 89.8775 170.14 90.6411 169.905C89.1303 168.569 87.3568 167.562 85.4344 166.951Z" fill="#030916"/>
<path d="M84.9538 170.774C84.6073 170.799 84.2738 170.916 83.9872 171.113C85.4431 171.022 86.89 170.821 88.3155 170.512L84.9538 170.774Z" fill="#030916"/>
<path d="M94.3348 143.572L69.5098 134.487C69.2437 134.39 69.0273 134.19 68.908 133.933C68.7887 133.676 68.7763 133.383 68.8737 133.117L68.9576 132.719C70.8964 127.418 77.3225 124.082 82.6222 126.021L90.2614 128.816C95.5611 130.756 97.8645 137.033 95.9257 142.335L95.7047 142.935C95.6074 143.201 95.4084 143.418 95.1515 143.537C94.8945 143.657 94.6008 143.669 94.3348 143.572Z" fill="#030916"/>
<path d="M95.672 144.076C61.0708 145.353 58.0474 141.004 68.5901 134.165L70.8267 130.048L96.4597 139.397L95.672 144.076Z" fill="#030916"/>
<path d="M88.8874 128.165C89.0784 127.529 88.2602 126.721 87.0598 126.36C85.8594 125.999 84.7314 126.222 84.5403 126.857C84.3493 127.493 85.1676 128.301 86.368 128.662C87.5684 129.023 88.6964 128.8 88.8874 128.165Z" fill="#030916"/>
<path d="M82.0781 171.978C78.6812 171.982 75.3082 171.41 72.1021 170.288L71.8234 170.188C65.1075 167.761 59.4702 163.029 55.9138 156.834C52.3575 150.64 51.1128 143.385 52.4009 136.359C53.6891 129.333 57.4268 122.991 62.9491 118.462C68.4715 113.934 75.4206 111.511 82.5606 111.625C89.7007 111.739 96.5688 114.383 101.944 119.086C107.318 123.789 110.851 130.247 111.914 137.311C112.977 144.374 111.501 151.586 107.748 157.664C103.996 163.741 98.2102 168.29 91.4202 170.502C91.2304 170.562 91.0518 170.619 90.8703 170.673C90.1119 170.907 89.3073 171.116 88.4852 171.295C87.02 171.612 85.5328 171.819 84.0364 171.912C83.3936 171.956 82.7331 171.978 82.0781 171.978ZM82.0781 113.217C75.3551 113.218 68.8477 115.59 63.7005 119.916C58.5532 124.243 55.0958 130.246 53.9362 136.87C52.7767 143.495 53.9893 150.316 57.3608 156.134C60.7322 161.953 66.0467 166.396 72.3693 168.682L72.6339 168.776C75.6692 169.838 78.8624 170.379 82.0781 170.376C82.6972 170.376 83.3213 170.355 83.9332 170.313C85.3502 170.225 86.7585 170.029 88.1461 169.729C88.9237 169.56 89.6839 169.362 90.4056 169.14C90.5842 169.086 90.7539 169.032 90.9235 168.978C97.3906 166.871 102.894 162.526 106.445 156.723C109.996 150.92 111.361 144.04 110.295 137.321C109.229 130.601 105.802 124.482 100.63 120.064C95.4577 115.646 88.8796 113.218 82.0781 113.217Z" fill="#D6D6D6"/>
<path d="M197.647 315.678H39.5093C37.5184 315.676 35.6097 314.884 34.2019 313.476C32.7941 312.067 32.0022 310.158 32 308.167V93.4195C32.0022 91.428 32.7941 89.5186 34.2019 88.1104C35.6097 86.7022 37.5184 85.91 39.5093 85.9078H197.647C199.638 85.91 201.546 86.7022 202.954 88.1104C204.362 89.5186 205.154 91.428 205.156 93.4195V308.167C205.154 310.158 204.362 312.067 202.954 313.476C201.546 314.884 199.638 315.676 197.647 315.678ZM39.5093 86.7915C37.7526 86.7935 36.0685 87.4924 34.8263 88.735C33.5842 89.9776 32.8854 91.6623 32.8834 93.4195V308.167C32.8854 309.924 33.5842 311.608 34.8263 312.851C36.0685 314.094 37.7526 314.793 39.5093 314.795H197.647C199.404 314.793 201.088 314.094 202.33 312.851C203.572 311.608 204.271 309.924 204.273 308.167V93.4195C204.271 91.6623 203.572 89.9776 202.33 88.735C201.088 87.4924 199.404 86.7935 197.647 86.7915H39.5093Z" fill="#D6D6D6"/>
<path d="M167.033 141.682H122.286C121.348 141.681 120.448 141.307 119.785 140.643C119.123 139.979 118.75 139.079 118.75 138.141C118.75 137.202 119.123 136.302 119.785 135.638C120.448 134.974 121.348 134.601 122.286 134.6H167.033C167.499 134.599 167.959 134.69 168.389 134.868C168.819 135.046 169.21 135.306 169.539 135.635C169.869 135.964 170.13 136.355 170.308 136.785C170.486 137.214 170.578 137.675 170.578 138.141C170.578 138.606 170.486 139.067 170.308 139.497C170.13 139.927 169.869 140.317 169.539 140.646C169.21 140.975 168.819 141.236 168.389 141.414C167.959 141.591 167.499 141.682 167.033 141.682Z" fill="#E6E6E6"/>
<path d="M181.636 153.633H122.286C121.348 153.632 120.448 153.259 119.785 152.595C119.123 151.931 118.75 151.031 118.75 150.092C118.75 149.154 119.123 148.254 119.785 147.59C120.448 146.926 121.348 146.552 122.286 146.551H181.636C182.574 146.552 183.473 146.926 184.136 147.59C184.799 148.254 185.172 149.154 185.172 150.092C185.172 151.031 184.799 151.931 184.136 152.595C183.473 153.259 182.574 153.632 181.636 153.633Z" fill="#E6E6E6"/>
<path d="M166.968 199.472H55.5203C55.055 199.473 54.5942 199.382 54.1642 199.204C53.7342 199.026 53.3434 198.765 53.0142 198.436C52.685 198.108 52.4239 197.717 52.2457 197.287C52.0675 196.857 51.9758 196.396 51.9758 195.931C51.9758 195.466 52.0675 195.005 52.2457 194.575C52.4239 194.145 52.685 193.754 53.0142 193.425C53.3434 193.097 53.7342 192.836 54.1642 192.658C54.5942 192.48 55.055 192.389 55.5203 192.39H166.968C167.906 192.391 168.806 192.765 169.469 193.428C170.131 194.092 170.504 194.993 170.504 195.931C170.504 196.869 170.131 197.769 169.469 198.433C168.806 199.097 167.906 199.471 166.968 199.472Z" fill="#E6E6E6"/>
<path d="M181.571 211.424H55.5203C55.055 211.424 54.5942 211.333 54.1642 211.155C53.7342 210.978 53.3434 210.717 53.0142 210.388C52.685 210.059 52.4239 209.668 52.2457 209.239C52.0675 208.809 51.9758 208.348 51.9758 207.882C51.9758 207.417 52.0675 206.956 52.2457 206.526C52.4239 206.096 52.685 205.706 53.0142 205.377C53.3434 205.048 53.7342 204.787 54.1642 204.609C54.5942 204.432 55.055 204.341 55.5203 204.341H181.571C182.036 204.341 182.497 204.432 182.927 204.609C183.357 204.787 183.748 205.048 184.077 205.377C184.406 205.706 184.667 206.096 184.845 206.526C185.024 206.956 185.115 207.417 185.115 207.882C185.115 208.348 185.024 208.809 184.845 209.239C184.667 209.668 184.406 210.059 184.077 210.388C183.748 210.717 183.357 210.978 182.927 211.155C182.497 211.333 182.036 211.424 181.571 211.424Z" fill="#E6E6E6"/>
<path d="M166.968 238.893H55.5202C54.5813 238.893 53.6809 238.519 53.017 237.855C52.3531 237.191 51.9802 236.291 51.9802 235.351C51.9802 234.412 52.3531 233.511 53.017 232.847C53.6809 232.183 54.5813 231.81 55.5202 231.81H166.968C167.907 231.81 168.807 232.183 169.471 232.847C170.135 233.511 170.508 234.412 170.508 235.351C170.508 236.291 170.135 237.191 169.471 237.855C168.807 238.519 167.907 238.893 166.968 238.893Z" fill="#E6E6E6"/>
<path d="M181.571 250.844H55.5202C54.5813 250.844 53.6809 250.471 53.017 249.807C52.3531 249.143 51.9802 248.242 51.9802 247.303C51.9802 246.364 52.3531 245.463 53.017 244.799C53.6809 244.135 54.5813 243.762 55.5202 243.762H181.571C182.51 243.762 183.41 244.135 184.074 244.799C184.738 245.463 185.111 246.364 185.111 247.303C185.111 248.242 184.738 249.143 184.074 249.807C183.41 250.471 182.51 250.844 181.571 250.844Z" fill="#E6E6E6"/>
<path d="M166.968 278.313H55.5202C54.5813 278.313 53.6809 277.94 53.017 277.276C52.3531 276.612 51.9802 275.711 51.9802 274.772C51.9802 273.833 52.3531 272.932 53.017 272.268C53.6809 271.604 54.5813 271.231 55.5202 271.231H166.968C167.907 271.231 168.807 271.604 169.471 272.268C170.135 272.932 170.508 273.833 170.508 274.772C170.508 275.711 170.135 276.612 169.471 277.276C168.807 277.94 167.907 278.313 166.968 278.313Z" fill="#E6E6E6"/>
<path d="M181.571 290.264H55.5202C54.5813 290.264 53.6809 289.891 53.017 289.227C52.3531 288.563 51.9802 287.662 51.9802 286.723C51.9802 285.784 52.3531 284.883 53.017 284.219C53.6809 283.555 54.5813 283.182 55.5202 283.182H181.571C182.51 283.182 183.41 283.555 184.074 284.219C184.738 284.883 185.111 285.784 185.111 286.723C185.111 287.662 184.738 288.563 184.074 289.227C183.41 289.891 182.51 290.264 181.571 290.264Z" fill="#E6E6E6"/>
<path d="M403.491 261.771L245.353 261.771C243.362 261.768 241.454 260.976 240.046 259.568C238.638 258.16 237.846 256.251 237.844 254.259L237.844 39.5119C237.846 37.5203 238.638 35.611 240.046 34.2027C241.453 32.7945 243.362 32.0024 245.353 32.0001L403.49 32C405.481 32.0022 407.39 32.7944 408.798 34.2026C410.206 35.6108 410.998 37.5202 411 39.5117L411 254.259C410.998 256.25 410.206 258.16 408.798 259.568C407.39 260.976 405.482 261.768 403.491 261.771Z" fill="white"/>
<path d="M403.491 261.771L245.353 261.771C243.362 261.768 241.454 260.976 240.046 259.568C238.638 258.16 237.846 256.251 237.844 254.259L237.844 39.5119C237.846 37.5203 238.638 35.611 240.046 34.2027C241.453 32.7945 243.362 32.0024 245.353 32.0001L403.49 32C405.481 32.0022 407.39 32.7944 408.798 34.2026C410.206 35.6108 410.998 37.5202 411 39.5117L411 254.259C410.998 256.25 410.206 258.16 408.798 259.568C407.39 260.976 405.482 261.768 403.491 261.771ZM245.353 32.8839C243.596 32.8858 241.912 33.5848 240.67 34.8274C239.428 36.0699 238.729 37.7546 238.727 39.5119L238.727 254.259C238.729 256.016 239.428 257.701 240.67 258.943C241.912 260.186 243.596 260.885 245.353 260.887L403.491 260.887C405.247 260.885 406.932 260.186 408.174 258.943C409.416 257.701 410.115 256.016 410.117 254.259L410.116 39.5117C410.114 37.7545 409.416 36.0698 408.173 34.8272C406.931 33.5847 405.247 32.8857 403.49 32.8837L245.353 32.8839Z" fill="#D6D6D6"/>
<path d="M317.367 87.5958C317.367 93.4067 315.645 99.0872 312.417 103.919C309.19 108.75 304.603 112.516 299.236 114.74C293.869 116.964 287.963 117.546 282.266 116.412C276.569 115.278 271.335 112.48 267.228 108.371C263.12 104.262 260.323 99.027 259.189 93.3277C258.056 87.6285 258.638 81.721 260.861 76.3524C263.084 70.9838 266.848 66.3952 271.678 63.1668C276.508 59.9384 282.187 58.2153 287.996 58.2153C295.785 58.2177 303.254 61.314 308.762 66.8234C314.269 72.3327 317.365 79.8044 317.367 87.5958Z" fill="white"/>
<path d="M301.571 92.6231C301.25 111.414 273.309 111.411 272.991 92.6225C273.311 73.8327 301.253 73.8356 301.571 92.6231Z" fill="#1A59E9"/>
<path d="M286.713 98.4555L286.699 97.9213C290.379 98.4128 291.172 93.8498 287.46 95.5557L288.307 89.3617L288.836 89.4342L288.116 94.7031C292.024 94.1211 290.578 98.9893 286.713 98.4555Z" fill="#030916"/>
<path d="M294.329 89.8885H291.453V90.4227H294.329V89.8885Z" fill="#030916"/>
<path d="M285.251 89.8885H282.375V90.4227H285.251V89.8885Z" fill="#030916"/>
<path d="M291.913 112.609C292.474 108.825 288.044 109.572 285.7 109.535C285.322 109.536 284.949 109.622 284.608 109.785C284.267 109.949 283.967 110.187 283.73 110.481C283.493 110.775 283.324 111.119 283.236 111.486C283.148 111.854 283.143 112.237 283.222 112.607C281.407 113.168 279.727 114.095 278.285 115.331C284.363 117.451 290.967 117.524 297.091 115.539C295.598 114.198 293.831 113.199 291.913 112.609Z" fill="#030916"/>
<path d="M280.562 85.8621C283.211 84.331 286.422 85.5056 289.158 86.1478C294.348 87.7438 301.626 85.7453 302.258 79.5606C302.914 73.8087 295.049 70.6029 292.534 76.3277L293.266 76.232C285.113 64.1106 270.93 64.5704 271.023 81.2351C270.993 81.7499 271.794 81.7482 271.824 81.2348C271.524 71.4145 278.021 64.7017 287.205 71.0126C289.256 72.6189 291.065 74.5131 292.575 76.6364C293.531 77.7087 293.739 73.0909 298.317 74.3004C303.355 76.2529 301.711 83.4694 297.208 85.0537C291.644 87.8972 285.618 82.3839 280.158 85.1699C280.07 85.2254 280.007 85.3129 279.983 85.4139C279.958 85.5149 279.973 85.6216 280.026 85.7114C280.078 85.8011 280.164 85.867 280.264 85.8952C280.364 85.9233 280.471 85.9114 280.562 85.8621Z" fill="#030916"/>
<path d="M287.996 117.778C280.411 117.771 273.108 114.905 267.542 109.751C261.976 104.596 258.557 97.5328 257.966 89.9685C257.376 82.4043 259.658 74.8954 264.356 68.9394C269.055 62.9834 275.826 59.0181 283.318 57.8342C290.81 56.6503 298.472 58.335 304.778 62.5521C311.083 66.7693 315.567 73.209 317.337 80.587C319.106 87.9649 318.03 95.7389 314.323 102.358C310.617 108.978 304.552 113.957 297.338 116.301C294.321 117.283 291.168 117.781 287.996 117.778ZM287.996 59.0166C282.344 59.0158 276.819 60.6916 272.12 63.832C267.42 66.9725 263.757 71.4366 261.594 76.6597C259.43 81.8828 258.864 87.6302 259.967 93.1752C261.069 98.7202 263.791 103.814 267.787 107.811C271.783 111.809 276.875 114.531 282.418 115.634C287.962 116.737 293.707 116.171 298.929 114.007C304.15 111.843 308.613 108.179 311.752 103.477C314.892 98.7763 316.567 93.2494 316.566 87.5958C316.558 80.0188 313.545 72.7545 308.189 67.3967C302.833 62.0389 295.571 59.0251 287.996 59.0166Z" fill="#D6D6D6"/>
<path d="M372.877 87.7742L328.13 87.7742C327.191 87.7742 326.29 87.4011 325.626 86.737C324.962 86.0729 324.589 85.1722 324.589 84.233C324.589 83.2939 324.962 82.3931 325.626 81.729C326.29 81.065 327.191 80.6919 328.13 80.6919L372.877 80.6918C373.816 80.6918 374.716 81.0649 375.38 81.729C376.044 82.3931 376.417 83.2938 376.417 84.233C376.417 85.1722 376.044 86.0729 375.38 86.737C374.716 87.4011 373.816 87.7742 372.877 87.7742Z" fill="#E6E6E6"/>
<path d="M387.48 99.7256L328.13 99.7256C327.664 99.7262 327.203 99.635 326.773 99.4573C326.343 99.2796 325.953 99.0189 325.624 98.69C325.294 98.3611 325.033 97.9706 324.855 97.5406C324.677 97.1107 324.585 96.6499 324.585 96.1845C324.585 95.7191 324.677 95.2582 324.855 94.8283C325.033 94.3984 325.294 94.0078 325.624 93.6789C325.953 93.35 326.343 93.0893 326.773 92.9116C327.203 92.7339 327.664 92.6427 328.13 92.6433L387.48 92.6432C388.419 92.6432 389.319 93.0163 389.983 93.6804C390.647 94.3445 391.02 95.2452 391.02 96.1844C391.02 97.1236 390.647 98.0243 389.983 98.6884C389.319 99.3525 388.419 99.7256 387.48 99.7256Z" fill="#E6E6E6"/>
<path d="M372.812 145.564L261.364 145.564C260.426 145.563 259.527 145.19 258.864 144.526C258.201 143.862 257.828 142.962 257.828 142.023C257.828 141.085 258.201 140.185 258.864 139.521C259.527 138.857 260.426 138.483 261.364 138.482L372.812 138.482C373.751 138.482 374.651 138.855 375.315 139.519C375.979 140.183 376.352 141.084 376.352 142.023C376.352 142.962 375.979 143.863 375.315 144.527C374.651 145.191 373.751 145.564 372.812 145.564Z" fill="#E6E6E6"/>
<path d="M387.415 157.516L261.364 157.516C260.899 157.516 260.438 157.425 260.008 157.248C259.578 157.07 259.187 156.809 258.858 156.48C258.529 156.151 258.268 155.761 258.089 155.331C257.911 154.901 257.82 154.44 257.82 153.975C257.82 153.509 257.911 153.048 258.089 152.619C258.268 152.189 258.529 151.798 258.858 151.469C259.187 151.14 259.578 150.88 260.008 150.702C260.438 150.524 260.899 150.433 261.364 150.434L387.415 150.433C388.353 150.433 389.254 150.806 389.918 151.471C390.582 152.135 390.955 153.035 390.955 153.975C390.955 154.914 390.582 155.814 389.918 156.479C389.254 157.143 388.353 157.516 387.415 157.516Z" fill="#E6E6E6"/>
<path d="M372.812 184.985L261.364 184.985C260.426 184.984 259.527 184.61 258.864 183.946C258.201 183.282 257.828 182.382 257.828 181.444C257.828 180.505 258.201 179.605 258.864 178.941C259.527 178.277 260.426 177.904 261.364 177.903L372.812 177.902C373.751 177.902 374.651 178.276 375.315 178.94C375.979 179.604 376.352 180.504 376.352 181.444C376.352 182.383 375.979 183.283 375.315 183.948C374.651 184.612 373.751 184.985 372.812 184.985Z" fill="#E6E6E6"/>
<path d="M387.415 196.936L261.364 196.936C260.899 196.937 260.438 196.846 260.008 196.668C259.578 196.49 259.187 196.23 258.858 195.901C258.529 195.572 258.268 195.181 258.089 194.751C257.911 194.321 257.82 193.861 257.82 193.395C257.82 192.93 257.911 192.469 258.089 192.039C258.268 191.609 258.529 191.218 258.858 190.89C259.187 190.561 259.578 190.3 260.008 190.122C260.438 189.945 260.899 189.853 261.364 189.854L387.415 189.854C388.353 189.854 389.254 190.227 389.918 190.891C390.582 191.555 390.955 192.456 390.955 193.395C390.955 194.334 390.582 195.235 389.918 195.899C389.254 196.563 388.353 196.936 387.415 196.936Z" fill="#E6E6E6"/>
<path d="M372.812 224.405L261.364 224.405C260.425 224.405 259.525 224.032 258.861 223.368C258.197 222.704 257.824 221.803 257.824 220.864C257.824 219.925 258.197 219.024 258.861 218.36C259.525 217.696 260.425 217.323 261.364 217.323L372.812 217.323C373.751 217.323 374.651 217.696 375.315 218.36C375.979 219.024 376.352 219.925 376.352 220.864C376.352 221.803 375.979 222.704 375.315 223.368C374.651 224.032 373.751 224.405 372.812 224.405Z" fill="#E6E6E6"/>
<path d="M387.415 236.357L261.364 236.357C260.425 236.357 259.525 235.984 258.861 235.32C258.197 234.655 257.824 233.755 257.824 232.816C257.824 231.876 258.197 230.976 258.861 230.312C259.525 229.647 260.425 229.274 261.364 229.274L387.415 229.274C388.353 229.274 389.254 229.647 389.918 230.311C390.582 230.976 390.955 231.876 390.955 232.815C390.955 233.755 390.582 234.655 389.918 235.319C389.254 235.984 388.353 236.357 387.415 236.357Z" fill="#E6E6E6"/>
<path d="M308.078 354.121H149.941C147.95 354.118 146.041 353.326 144.633 351.918C143.225 350.51 142.433 348.601 142.431 346.609V131.862C142.433 129.87 143.225 127.961 144.633 126.553C146.041 125.145 147.95 124.352 149.941 124.35H308.078C310.069 124.352 311.978 125.145 313.385 126.553C314.793 127.961 315.585 129.87 315.587 131.862V346.609C315.585 348.601 314.793 350.51 313.385 351.918C311.978 353.326 310.069 354.118 308.078 354.121Z" fill="white"/>
<path d="M163.13 179.635C163.124 183.502 163.885 187.332 165.367 190.903C166.849 194.475 169.023 197.717 171.765 200.444C171.994 200.671 172.229 200.898 172.467 201.12C173.898 202.458 175.46 203.649 177.129 204.675C177.449 204.873 177.77 205.062 178.098 205.246C179.786 206.198 181.564 206.979 183.406 207.578C183.724 207.682 184.047 207.781 184.37 207.872C190.227 209.552 196.459 209.377 202.212 207.37C202.324 207.33 202.436 207.29 202.546 207.25C207.596 205.412 212.045 202.224 215.409 198.032C218.773 193.84 220.923 188.806 221.625 183.476C222.327 178.147 221.554 172.727 219.391 167.807C217.227 162.886 213.756 158.654 209.354 155.57C204.953 152.486 199.79 150.669 194.428 150.317C189.065 149.965 183.709 151.091 178.943 153.573C174.176 156.054 170.181 159.796 167.393 164.392C164.605 168.987 163.13 174.259 163.13 179.635Z" fill="white"/>
<path d="M186.298 194.035C186.312 196.312 185.474 198.511 183.947 200.199C182.437 201.857 180.189 202.956 177.92 202.501C175.831 202.082 174.133 200.256 174.345 198.046C174.38 197.568 174.519 197.103 174.753 196.683C174.986 196.264 175.308 195.9 175.696 195.618C176.084 195.336 176.529 195.142 177 195.05C177.47 194.957 177.955 194.968 178.421 195.083C180.406 195.598 181.197 198.459 179.543 199.802C179.146 200.124 178.576 199.561 178.977 199.236C179.224 199.01 179.41 198.725 179.519 198.409C179.627 198.092 179.655 197.753 179.599 197.423C179.543 197.093 179.405 196.782 179.197 196.52C178.99 196.257 178.72 196.05 178.413 195.918C178.049 195.802 177.664 195.77 177.287 195.825C176.91 195.879 176.55 196.019 176.234 196.233C175.919 196.447 175.656 196.73 175.466 197.061C175.276 197.392 175.164 197.762 175.138 198.142C175.007 200.005 176.434 201.408 178.183 201.738C180.076 202.095 181.952 201.126 183.234 199.789C184.704 198.236 185.515 196.174 185.497 194.035C185.501 193.931 185.544 193.833 185.619 193.761C185.694 193.688 185.794 193.648 185.898 193.648C186.002 193.648 186.101 193.688 186.176 193.761C186.251 193.833 186.295 193.931 186.298 194.035Z" fill="#030916"/>
<path d="M194.12 199.129C202.012 199.129 208.41 192.729 208.41 184.834C208.41 176.94 202.012 170.54 194.12 170.54C186.228 170.54 179.83 176.94 179.83 184.834C179.83 192.729 186.228 199.129 194.12 199.129Z" fill="#1A59E9"/>
<path d="M193.389 190.934L193.374 190.4C194.367 190.372 195.243 190.31 195.901 189.829C196.088 189.685 196.241 189.502 196.351 189.293C196.461 189.085 196.524 188.855 196.537 188.619C196.549 188.475 196.527 188.331 196.474 188.197C196.42 188.063 196.337 187.943 196.229 187.846C195.981 187.695 195.696 187.614 195.405 187.612C195.115 187.609 194.828 187.685 194.577 187.831L194.135 188.034L194.983 181.84L195.512 181.913L194.791 187.181C195.086 187.072 195.404 187.038 195.715 187.083C196.027 187.128 196.322 187.25 196.574 187.438C196.744 187.586 196.877 187.772 196.963 187.98C197.049 188.188 197.086 188.413 197.071 188.638C197.055 188.954 196.971 189.263 196.823 189.544C196.676 189.824 196.468 190.068 196.216 190.26C195.371 190.878 194.272 190.909 193.389 190.934Z" fill="#030916"/>
<path d="M201.004 182.367H198.128V182.901H201.004V182.367Z" fill="#030916"/>
<path d="M191.926 182.367H189.05V182.901H191.926V182.367Z" fill="#030916"/>
<path d="M184.37 207.872C190.227 209.552 196.459 209.377 202.212 207.37C202.324 207.33 202.436 207.29 202.546 207.25C201.19 206.204 199.657 205.411 198.02 204.91C198.136 204.499 198.134 204.064 198.014 203.655C197.852 203.135 197.527 202.682 197.087 202.363C196.647 202.043 196.115 201.874 195.571 201.881H192.09C191.547 201.874 191.016 202.042 190.576 202.361C190.137 202.68 189.813 203.133 189.652 203.652C189.532 204.063 189.531 204.498 189.646 204.91C188.204 205.352 186.842 206.02 185.609 206.889C185.361 207.063 185.121 207.244 184.888 207.434C184.712 207.576 184.538 207.722 184.37 207.872Z" fill="#030916"/>
<path d="M205.315 183.318C205.315 185.727 206.5 187.725 208.041 188.072C208.198 188.107 208.358 188.125 208.519 188.126C210.284 188.126 211.723 185.97 211.723 183.318C211.763 181.951 211.327 180.612 210.489 179.531C210.229 179.215 209.908 178.955 209.547 178.764C209.229 178.598 208.877 178.511 208.519 178.51C208.027 178.516 207.55 178.677 207.154 178.97C206.068 179.739 205.315 181.397 205.315 183.318Z" fill="#3F3D56"/>
<path d="M176.744 183.318C176.744 185.391 177.62 187.159 178.848 187.835C179.185 188.023 179.563 188.123 179.949 188.126C180.034 188.126 180.12 188.12 180.205 188.11C181.85 187.915 183.153 185.842 183.153 183.318C183.153 181.296 182.317 179.563 181.137 178.855C180.78 178.633 180.369 178.514 179.949 178.51C179.591 178.511 179.238 178.598 178.921 178.764C178.558 178.955 178.237 179.217 177.975 179.533C177.14 180.615 176.705 181.952 176.744 183.318Z" fill="#3F3D56"/>
<path d="M179.048 187.374C179.112 187.374 179.175 187.358 179.231 187.329C179.288 187.3 179.337 187.258 179.374 187.206C179.411 187.155 179.435 187.095 179.444 187.032C179.454 186.969 179.448 186.905 179.428 186.845C178.662 184.568 178.432 182.145 178.755 179.764C179.078 177.384 179.945 175.11 181.289 173.119C182.634 171.128 184.419 169.474 186.506 168.286C188.593 167.097 190.926 166.406 193.323 166.266C195.721 166.126 198.118 166.541 200.329 167.479C202.54 168.417 204.506 169.852 206.072 171.673C207.639 173.493 208.764 175.651 209.362 177.978C209.959 180.305 210.012 182.738 209.517 185.089C209.495 185.193 209.515 185.301 209.573 185.39C209.631 185.479 209.722 185.541 209.826 185.563C209.93 185.585 210.038 185.564 210.127 185.506C210.216 185.449 210.278 185.358 210.3 185.254C210.822 182.783 210.766 180.224 210.138 177.778C209.511 175.331 208.327 173.063 206.68 171.148C205.033 169.233 202.967 167.725 200.642 166.739C198.317 165.753 195.797 165.317 193.276 165.464C190.755 165.611 188.302 166.338 186.108 167.587C183.914 168.837 182.037 170.576 180.624 172.669C179.211 174.763 178.299 177.154 177.96 179.657C177.621 182.159 177.864 184.707 178.669 187.101C178.696 187.18 178.747 187.249 178.815 187.298C178.883 187.347 178.965 187.374 179.048 187.374Z" fill="#3F3D56"/>
<path d="M201.299 175.573C201.536 175.96 201.634 176.416 201.578 176.867C201.522 177.317 201.314 177.736 200.989 178.053C200.213 178.92 198.976 178.974 197.902 178.813C196.697 178.633 195.418 178.068 194.198 178.449C193.158 178.773 192.416 179.717 191.335 179.954C190.377 180.164 189.231 179.886 188.895 178.864C188.734 178.373 189.507 178.163 189.668 178.651C189.885 179.312 190.823 179.299 191.361 179.116C192.222 178.822 192.886 178.109 193.733 177.768C194.743 177.455 195.824 177.458 196.831 177.776C197.79 177.992 198.892 178.312 199.847 177.909C200.553 177.61 201.115 176.671 200.607 175.977C200.302 175.561 200.997 175.16 201.299 175.573Z" fill="#030916"/>
<path d="M192.501 209.816C189.675 209.819 186.863 209.423 184.148 208.642C183.829 208.552 183.494 208.45 183.157 208.34C181.265 207.724 179.439 206.921 177.705 205.945C177.38 205.762 177.054 205.57 176.709 205.357C174.995 204.302 173.391 203.079 171.92 201.705C171.677 201.479 171.437 201.246 171.202 201.014C166.577 196.402 163.573 190.413 162.642 183.947C161.711 177.48 162.902 170.887 166.037 165.156C169.172 159.425 174.081 154.866 180.027 152.165C185.974 149.463 192.636 148.765 199.013 150.174C205.389 151.584 211.137 155.025 215.392 159.981C219.646 164.937 222.179 171.141 222.608 177.66C223.037 184.178 221.34 190.66 217.772 196.132C214.203 201.603 208.957 205.769 202.819 208.003C202.709 208.043 202.595 208.084 202.481 208.124C199.274 209.248 195.899 209.82 192.501 209.816ZM192.501 151.055C186.846 151.056 181.319 152.734 176.619 155.879C171.918 159.023 168.257 163.492 166.097 168.72C163.937 173.947 163.377 179.698 164.486 185.245C165.596 190.791 168.326 195.883 172.33 199.877C172.552 200.096 172.781 200.317 173.013 200.534C174.406 201.835 175.925 202.994 177.549 203.992C177.876 204.194 178.183 204.375 178.49 204.548C180.132 205.473 181.862 206.233 183.654 206.816C183.971 206.92 184.284 207.016 184.587 207.101C190.285 208.736 196.35 208.566 201.947 206.614L202.271 206.497C208.583 204.199 213.884 199.749 217.243 193.93C220.601 188.111 221.803 181.294 220.637 174.676C219.471 168.059 216.011 162.064 210.866 157.744C205.72 153.424 199.218 151.056 192.501 151.055Z" fill="#D6D6D6"/>
<path d="M308.078 354.121H149.941C147.95 354.118 146.041 353.326 144.633 351.918C143.225 350.51 142.433 348.601 142.431 346.609V131.862C142.433 129.87 143.225 127.961 144.633 126.553C146.041 125.145 147.95 124.352 149.941 124.35H308.078C310.069 124.352 311.978 125.145 313.385 126.553C314.793 127.961 315.585 129.87 315.587 131.862V346.609C315.585 348.601 314.793 350.51 313.385 351.918C311.978 353.326 310.069 354.118 308.078 354.121ZM149.941 125.234C148.184 125.236 146.5 125.935 145.258 127.177C144.015 128.42 143.317 130.105 143.315 131.862V346.609C143.317 348.366 144.015 350.051 145.258 351.293C146.5 352.536 148.184 353.235 149.941 353.237H308.078C309.835 353.235 311.519 352.536 312.761 351.293C314.003 350.051 314.702 348.366 314.704 346.609V131.862C314.702 130.105 314.003 128.42 312.761 127.177C311.519 125.935 309.835 125.236 308.078 125.234H149.941Z" fill="#3F3D56"/>
<path d="M277.464 180.124H232.717C231.778 180.124 230.878 179.751 230.214 179.087C229.55 178.423 229.177 177.522 229.177 176.583C229.177 175.644 229.55 174.743 230.214 174.079C230.878 173.415 231.778 173.042 232.717 173.042H277.464C278.403 173.042 279.304 173.415 279.968 174.079C280.632 174.743 281.005 175.644 281.005 176.583C281.005 177.522 280.632 178.423 279.968 179.087C279.304 179.751 278.403 180.124 277.464 180.124Z" fill="#1A59E9"/>
<path d="M292.067 192.076H232.717C231.778 192.076 230.878 191.703 230.214 191.039C229.55 190.374 229.177 189.474 229.177 188.535C229.177 187.595 229.55 186.695 230.214 186.031C230.878 185.366 231.778 184.993 232.717 184.993H292.067C293.006 184.993 293.906 185.366 294.57 186.031C295.234 186.695 295.607 187.595 295.607 188.535C295.607 189.474 295.234 190.374 294.57 191.039C293.906 191.703 293.006 192.076 292.067 192.076Z" fill="#1A59E9"/>
<path d="M277.399 237.914H165.951C165.013 237.914 164.112 237.541 163.448 236.877C162.784 236.213 162.411 235.312 162.411 234.373C162.411 233.434 162.784 232.533 163.448 231.869C164.112 231.205 165.013 230.832 165.951 230.832H277.399C278.338 230.832 279.239 231.205 279.902 231.869C280.566 232.533 280.939 233.434 280.939 234.373C280.939 235.312 280.566 236.213 279.902 236.877C279.239 237.541 278.338 237.914 277.399 237.914Z" fill="#D6D6D6"/>
<path d="M292.002 249.866H165.951C165.013 249.866 164.112 249.493 163.448 248.829C162.784 248.165 162.411 247.264 162.411 246.325C162.411 245.386 162.784 244.485 163.448 243.821C164.112 243.157 165.013 242.784 165.951 242.784H292.002C292.941 242.784 293.841 243.157 294.505 243.821C295.169 244.485 295.542 245.386 295.542 246.325C295.542 247.264 295.169 248.165 294.505 248.829C293.841 249.493 292.941 249.866 292.002 249.866Z" fill="#D6D6D6"/>
<path d="M277.399 277.335H165.951C165.013 277.334 164.114 276.96 163.451 276.296C162.788 275.632 162.416 274.732 162.416 273.794C162.416 272.855 162.788 271.955 163.451 271.291C164.114 270.627 165.013 270.254 165.951 270.253H277.399C278.338 270.253 279.239 270.626 279.903 271.29C280.566 271.954 280.939 272.855 280.939 273.794C280.939 274.733 280.566 275.634 279.903 276.298C279.239 276.962 278.338 277.335 277.399 277.335Z" fill="#D6D6D6"/>
<path d="M292.002 289.286H165.951C165.013 289.285 164.114 288.912 163.451 288.248C162.788 287.584 162.416 286.684 162.416 285.745C162.416 284.807 162.788 283.907 163.451 283.243C164.114 282.579 165.013 282.205 165.951 282.204H292.002C292.941 282.204 293.841 282.577 294.505 283.241C295.169 283.905 295.542 284.806 295.542 285.745C295.542 286.684 295.169 287.585 294.505 288.249C293.841 288.913 292.941 289.286 292.002 289.286Z" fill="#D6D6D6"/>
<path d="M277.399 316.755H165.951C165.013 316.755 164.112 316.382 163.448 315.718C162.784 315.054 162.411 314.153 162.411 313.214C162.411 312.275 162.784 311.374 163.448 310.71C164.112 310.046 165.013 309.673 165.951 309.673H277.399C278.338 309.673 279.239 310.046 279.902 310.71C280.566 311.374 280.939 312.275 280.939 313.214C280.939 314.153 280.566 315.054 279.902 315.718C279.239 316.382 278.338 316.755 277.399 316.755Z" fill="#D6D6D6"/>
<path d="M292.002 328.707H165.951C165.013 328.707 164.112 328.334 163.448 327.67C162.784 327.005 162.411 326.105 162.411 325.166C162.411 324.226 162.784 323.326 163.448 322.662C164.112 321.997 165.013 321.624 165.951 321.624H292.002C292.941 321.624 293.841 321.997 294.505 322.662C295.169 323.326 295.542 324.226 295.542 325.166C295.542 326.105 295.169 327.005 294.505 327.67C293.841 328.334 292.941 328.707 292.002 328.707Z" fill="#D6D6D6"/>
<path d="M306.243 305.221C301.66 305.216 297.12 306.114 292.884 307.866C288.648 309.617 284.798 312.186 281.555 315.426C278.312 318.666 275.74 322.514 273.984 326.75C272.229 330.985 271.326 335.525 271.326 340.11C271.326 344.695 272.229 349.235 273.984 353.471C275.74 357.706 278.312 361.554 281.555 364.795C284.798 368.035 288.647 370.604 292.884 372.355C297.12 374.106 301.659 375.005 306.243 375C315.483 374.984 324.338 371.301 330.866 364.759C337.394 358.218 341.06 349.353 341.06 340.11C341.06 330.868 337.394 322.003 330.866 315.462C324.338 308.92 315.483 305.237 306.243 305.221Z" fill="url(#paint0_linear_35_279)"/>
<path d="M302.934 354.6C302.016 354.602 301.122 354.305 300.387 353.754L300.342 353.72L290.75 346.38C289.854 345.692 289.268 344.675 289.12 343.555C288.973 342.434 289.276 341.301 289.964 340.404C290.651 339.507 291.666 338.92 292.786 338.772C293.906 338.623 295.039 338.926 295.937 339.612L302.149 344.378L316.83 325.219C317.171 324.775 317.595 324.402 318.08 324.122C318.564 323.842 319.099 323.66 319.654 323.587C320.208 323.514 320.772 323.55 321.312 323.695C321.853 323.839 322.36 324.089 322.804 324.43L322.805 324.431L322.714 324.557L322.807 324.431C323.703 325.119 324.289 326.136 324.437 327.256C324.585 328.376 324.282 329.51 323.596 330.407L306.328 352.932C305.928 353.451 305.415 353.871 304.827 354.16C304.239 354.448 303.592 354.597 302.937 354.595L302.934 354.6Z" fill="white"/>
</g>
<defs>
<linearGradient id="paint0_linear_35_279" x1="239" y1="340.11" x2="360" y2="340.11" gradientUnits="userSpaceOnUse">
<stop stop-color="#1A59E9"/>
<stop offset="1" stop-color="#8632DA"/>
</linearGradient>
<clipPath id="clip0_35_279">
<rect width="379" height="343" fill="white" transform="translate(32 32)"/>
</clipPath>
</defs>
</svg>
