<svg width="138" height="33" viewBox="0 0 138 33" fill="none" xmlns="http://www.w3.org/2000/svg">
<path d="M0 0H10V9.65625H0V0Z" fill="url(#paint0_linear_64_264)"/>
<path d="M13.2 22.74V19.348H18.416C19.4827 19.348 20.304 19.0813 20.88 18.548C21.4773 17.9933 21.776 17.236 21.776 16.276C21.776 15.4013 21.4773 14.676 20.88 14.1C20.304 13.5027 19.4827 13.204 18.416 13.204H13.2V9.652H18.8C20.2507 9.652 21.52 9.94 22.608 10.516C23.7173 11.0707 24.5707 11.8387 25.168 12.82C25.7867 13.8013 26.096 14.932 26.096 16.212C26.096 17.5347 25.7867 18.6867 25.168 19.668C24.5707 20.628 23.7173 21.3853 22.608 21.94C21.4987 22.4733 20.208 22.74 18.736 22.74H13.2ZM10 32.148V9.652H14.352V32.148H10ZM22.288 32.148L14.864 22.42L18.864 21.172L27.568 32.148H22.288Z" fill="#0D0D0D"/>
<path d="M36.5378 32.468C34.9164 32.468 33.4764 32.1267 32.2178 31.444C30.9591 30.74 29.9564 29.78 29.2097 28.564C28.4844 27.348 28.1217 25.9613 28.1217 24.404C28.1217 22.868 28.4737 21.5027 29.1777 20.308C29.9031 19.092 30.8844 18.132 32.1217 17.428C33.3591 16.7027 34.7351 16.34 36.2498 16.34C37.7431 16.34 39.0551 16.6813 40.1858 17.364C41.3378 18.0253 42.2337 18.9427 42.8737 20.116C43.5351 21.268 43.8657 22.58 43.8657 24.052C43.8657 24.3293 43.8444 24.6173 43.8018 24.916C43.7804 25.1933 43.7271 25.5133 43.6418 25.876L30.6497 25.908V22.772L41.6898 22.74L39.9937 24.052C39.9511 23.1347 39.7804 22.3667 39.4818 21.748C39.2044 21.1293 38.7884 20.66 38.2337 20.34C37.7004 19.9987 37.0391 19.828 36.2498 19.828C35.4178 19.828 34.6924 20.02 34.0737 20.404C33.4551 20.7667 32.9751 21.2893 32.6338 21.972C32.3138 22.6333 32.1537 23.4227 32.1537 24.34C32.1537 25.2787 32.3244 26.1 32.6658 26.804C33.0284 27.4867 33.5404 28.02 34.2017 28.404C34.8631 28.7667 35.6311 28.948 36.5058 28.948C37.2951 28.948 38.0098 28.82 38.6497 28.564C39.2897 28.2867 39.8444 27.8813 40.3137 27.348L42.7778 29.812C42.0311 30.6867 41.1138 31.348 40.0258 31.796C38.9591 32.244 37.7964 32.468 36.5378 32.468Z" fill="#0D0D0D"/>
<path d="M51.7702 32.5C50.8956 32.5 50.0316 32.3827 49.1782 32.148C48.3462 31.9133 47.5782 31.5933 46.8742 31.188C46.1702 30.7613 45.5623 30.2493 45.0503 29.652L47.5462 27.124C48.0796 27.7213 48.6982 28.1693 49.4022 28.468C50.1062 28.7667 50.8849 28.916 51.7383 28.916C52.4209 28.916 52.9329 28.82 53.2743 28.628C53.6369 28.436 53.8182 28.148 53.8182 27.764C53.8182 27.3373 53.6262 27.0067 53.2422 26.772C52.8796 26.5373 52.3996 26.3453 51.8022 26.196C51.2049 26.0253 50.5756 25.844 49.9142 25.652C49.2743 25.4387 48.6556 25.172 48.0583 24.852C47.4609 24.5107 46.9702 24.052 46.5863 23.476C46.2236 22.8787 46.0423 22.1107 46.0423 21.172C46.0423 20.1907 46.2769 19.3373 46.7463 18.612C47.2369 17.8867 47.9302 17.3213 48.8262 16.916C49.7222 16.5107 50.7783 16.308 51.9943 16.308C53.2743 16.308 54.4262 16.532 55.4502 16.98C56.4956 17.428 57.3596 18.1 58.0423 18.996L55.5143 21.524C55.0449 20.948 54.5116 20.532 53.9142 20.276C53.3382 20.02 52.7089 19.892 52.0262 19.892C51.4076 19.892 50.9276 19.988 50.5863 20.18C50.2663 20.372 50.1063 20.6387 50.1063 20.98C50.1063 21.364 50.2876 21.6627 50.6502 21.876C51.0342 22.0893 51.5249 22.2813 52.1222 22.452C52.7196 22.6013 53.3382 22.7827 53.9782 22.996C54.6396 23.188 55.2583 23.4653 55.8343 23.828C56.4316 24.1907 56.9116 24.6707 57.2743 25.268C57.6582 25.8653 57.8503 26.6333 57.8503 27.572C57.8503 29.0867 57.3063 30.292 56.2183 31.188C55.1302 32.0627 53.6476 32.5 51.7702 32.5Z" fill="#0D0D0D"/>
<path d="M67.269 32.468C65.9037 32.468 64.6877 32.18 63.621 31.604C62.5757 31.028 61.7543 30.228 61.157 29.204C60.5597 28.18 60.261 26.996 60.261 25.652V16.692H64.485V25.556C64.485 26.196 64.5917 26.7507 64.805 27.22C65.0183 27.668 65.3383 28.0093 65.765 28.244C66.1917 28.4787 66.693 28.596 67.269 28.596C68.1437 28.596 68.8263 28.3293 69.317 27.796C69.8077 27.2627 70.053 26.516 70.053 25.556V16.692H74.245V25.652C74.245 27.0173 73.9463 28.212 73.349 29.236C72.773 30.26 71.9517 31.06 70.885 31.636C69.8397 32.1907 68.6343 32.468 67.269 32.468Z" fill="#0D0D0D"/>
<path d="M77.5833 32.148V16.692H81.7753V32.148H77.5833ZM87.6633 32.148V23.028C87.6633 22.132 87.3752 21.4387 86.7992 20.948C86.2446 20.436 85.5513 20.18 84.7193 20.18C84.1646 20.18 83.6632 20.2973 83.2152 20.532C82.7673 20.7453 82.4152 21.0653 82.1592 21.492C81.9033 21.9187 81.7753 22.4307 81.7753 23.028L80.1432 22.228C80.1432 21.0333 80.3992 19.9987 80.9112 19.124C81.4446 18.2493 82.1592 17.5773 83.0553 17.108C83.9513 16.6173 84.9646 16.372 86.0953 16.372C87.1619 16.372 88.1326 16.6173 89.0072 17.108C89.8819 17.5773 90.5752 18.2493 91.0872 19.124C91.5993 19.9773 91.8552 21.012 91.8552 22.228V32.148H87.6633ZM97.7432 32.148V23.028C97.7432 22.132 97.4552 21.4387 96.8792 20.948C96.3246 20.436 95.6312 20.18 94.7992 20.18C94.2659 20.18 93.7646 20.2973 93.2952 20.532C92.8473 20.7453 92.4952 21.0653 92.2393 21.492C91.9832 21.9187 91.8552 22.4307 91.8552 23.028L89.4553 22.452C89.5406 21.2147 89.8713 20.148 90.4473 19.252C91.0233 18.3347 91.7806 17.6307 92.7193 17.14C93.6579 16.628 94.7032 16.372 95.8552 16.372C97.0072 16.372 98.0419 16.6173 98.9593 17.108C99.8766 17.5773 100.602 18.26 101.135 19.156C101.669 20.052 101.935 21.1187 101.935 22.356V32.148H97.7432Z" fill="#0D0D0D"/>
<path d="M105.333 32.148V16.692H109.557V32.148H105.333ZM107.445 14.196C106.763 14.196 106.197 13.972 105.749 13.524C105.301 13.0547 105.077 12.4787 105.077 11.796C105.077 11.1347 105.301 10.5693 105.749 10.1C106.197 9.63067 106.763 9.396 107.445 9.396C108.149 9.396 108.715 9.63067 109.141 10.1C109.589 10.5693 109.813 11.1347 109.813 11.796C109.813 12.4787 109.589 13.0547 109.141 13.524C108.715 13.972 108.149 14.196 107.445 14.196Z" fill="#0D0D0D"/>
<path d="M119.799 32.468C118.369 32.468 117.089 32.116 115.959 31.412C114.828 30.708 113.932 29.748 113.271 28.532C112.631 27.316 112.311 25.9507 112.311 24.436C112.311 22.9 112.631 21.524 113.271 20.308C113.932 19.092 114.817 18.132 115.927 17.428C117.057 16.724 118.348 16.372 119.799 16.372C120.908 16.372 121.9 16.596 122.775 17.044C123.671 17.492 124.385 18.1213 124.919 18.932C125.473 19.7213 125.772 20.6173 125.815 21.62V27.124C125.772 28.1267 125.484 29.0333 124.951 29.844C124.417 30.6547 123.703 31.2947 122.807 31.764C121.911 32.2333 120.908 32.468 119.799 32.468ZM120.503 28.596C121.292 28.596 121.975 28.4253 122.551 28.084C123.148 27.7213 123.607 27.2307 123.927 26.612C124.268 25.972 124.439 25.236 124.439 24.404C124.439 23.5933 124.268 22.8787 123.927 22.26C123.607 21.62 123.148 21.1293 122.551 20.788C121.975 20.4253 121.303 20.244 120.535 20.244C119.745 20.244 119.052 20.4253 118.455 20.788C117.879 21.1507 117.42 21.6413 117.079 22.26C116.759 22.8787 116.599 23.5933 116.599 24.404C116.599 25.236 116.759 25.972 117.079 26.612C117.42 27.2307 117.889 27.7213 118.487 28.084C119.084 28.4253 119.756 28.596 120.503 28.596ZM128.375 32.148H124.215V27.988L124.887 24.212L124.183 20.5V9.012H128.375V32.148Z" fill="#0D0D0D"/>
<path d="M134.963 32.468C134.195 32.468 133.566 32.212 133.075 31.7C132.585 31.188 132.339 30.5587 132.339 29.812C132.339 29.0653 132.585 28.436 133.075 27.924C133.566 27.412 134.195 27.156 134.963 27.156C135.71 27.156 136.329 27.412 136.819 27.924C137.31 28.436 137.555 29.0653 137.555 29.812C137.555 30.5587 137.31 31.188 136.819 31.7C136.329 32.212 135.71 32.468 134.963 32.468Z" fill="#0D0D0D"/>
<defs>
<linearGradient id="paint0_linear_64_264" x1="0" y1="5" x2="10" y2="5" gradientUnits="userSpaceOnUse">
<stop stop-color="#1A59E9"/>
<stop offset="1" stop-color="#8632DA"/>
</linearGradient>
</defs>
</svg>
